<svg width="45" height="44" viewBox="0 0 45 44" fill="none" xmlns="http://www.w3.org/2000/svg">
<ellipse cx="22.5" cy="38" rx="22.5" ry="6" fill="#D9D9D9"/>
<path d="M21.0215 38C20.7524 37.621 20.4861 37.2632 20.238 36.8939C18.674 34.5634 17.0745 32.2541 15.5615 29.8928C13.3828 26.4918 11.396 22.9867 9.80876 19.2807C9.22061 17.9072 8.69111 16.5125 8.35273 15.0592C7.54308 11.5787 8.11182 8.32872 10.2189 5.39025C12.136 2.71745 14.781 1.03985 18.0525 0.337363C21.4768 -0.398279 24.747 0.0606275 27.77 1.798C30.9677 3.63568 33.0073 6.33139 33.7595 9.88434C34.1996 11.9623 34.0144 14.019 33.3912 16.0495C32.6119 18.588 31.5107 20.9951 30.2813 23.3506C28.7054 26.3694 26.9482 29.2886 25.0567 32.13C23.7762 34.0537 22.4455 35.9462 21.1371 37.8523C21.1063 37.8965 21.0709 37.9374 21.0215 38ZM20.9852 18.1225C24.385 18.1258 27.1654 15.46 27.1697 12.1928C27.1739 8.84453 24.4344 6.15455 21.0144 6.14922C17.6053 6.1439 14.8354 8.81997 14.8304 12.1236C14.8257 15.4383 17.5766 18.1193 20.9852 18.1225Z" fill="#BB002D"/>
</svg>
