<svg width="399" height="193" viewBox="0 0 399 193" fill="none" xmlns="http://www.w3.org/2000/svg">
<path d="M75.1117 136C76.0117 136 76.7784 136.317 77.4117 136.95C78.0451 137.583 78.3617 138.35 78.3617 139.25C78.3617 140.117 78.0451 140.867 77.4117 141.5C76.7784 142.133 76.0117 142.45 75.1117 142.45C74.2117 142.45 73.4451 142.133 72.8117 141.5C72.1784 140.867 71.8617 140.117 71.8617 139.25C71.8617 138.35 72.1784 137.583 72.8117 136.95C73.4451 136.317 74.2117 136 75.1117 136ZM82.7117 136C83.6117 136 84.3784 136.317 85.0117 136.95C85.6451 137.583 85.9617 138.35 85.9617 139.25C85.9617 140.117 85.6451 140.867 85.0117 141.5C84.3784 142.133 83.6117 142.45 82.7117 142.45C81.8451 142.45 81.0951 142.133 80.4617 141.5C79.8284 140.867 79.5117 140.117 79.5117 139.25C79.5117 138.35 79.8284 137.583 80.4617 136.95C81.0951 136.317 81.8451 136 82.7117 136ZM85.9617 145.65V163.65C85.9617 164.05 86.0784 164.35 86.3117 164.55C86.5117 164.783 86.7784 164.9 87.1117 164.9H88.5117V170H85.3617C83.8284 170 82.4451 169.383 81.2117 168.15C79.3117 169.717 77.1951 170.5 74.8617 170.5C72.2284 170.5 69.9617 169.667 68.0617 168C65.5284 165.633 64.2617 162.467 64.2617 158.5C64.2617 154.867 65.4284 151.85 67.7617 149.45C69.8951 147.283 72.5117 146.2 75.6117 146.2C77.3451 146.2 79.0784 146.567 80.8117 147.3L82.9617 145.65H85.9617ZM79.8617 152.1C78.6951 151.667 77.5784 151.45 76.5117 151.45C74.7117 151.45 73.2284 152.117 72.0617 153.45C70.8951 154.75 70.3117 156.45 70.3117 158.55C70.3117 160.65 70.8284 162.333 71.8617 163.6C72.9284 164.867 74.3451 165.5 76.1117 165.5C77.3117 165.5 78.5617 165.233 79.8617 164.7V152.1ZM103.218 147V164.5C103.218 165.8 102.785 167 101.918 168.1C100.818 169.367 99.4517 170 97.8184 170H88.1684V164.9H95.8684C96.235 164.9 96.5517 164.767 96.8184 164.5C97.0517 164.267 97.1684 163.983 97.1684 163.65V147H103.218ZM92.2684 173.65C93.1684 173.65 93.935 173.967 94.5684 174.6C95.2017 175.233 95.5184 176 95.5184 176.9C95.5184 177.8 95.2017 178.567 94.5684 179.2C93.935 179.833 93.1684 180.15 92.2684 180.15C91.4017 180.15 90.6517 179.833 90.0184 179.2C89.385 178.567 89.0684 177.8 89.0684 176.9C89.0684 176 89.385 175.233 90.0184 174.6C90.6517 173.967 91.4017 173.65 92.2684 173.65ZM99.9184 173.65C100.818 173.65 101.568 173.967 102.168 174.6C102.802 175.233 103.118 176 103.118 176.9C103.118 177.8 102.802 178.567 102.168 179.2C101.568 179.833 100.818 180.15 99.9184 180.15C99.0184 180.15 98.2517 179.833 97.6184 179.2C96.985 178.567 96.6684 177.8 96.6684 176.9C96.6684 176 96.985 175.233 97.6184 174.6C98.2517 173.967 99.0184 173.65 99.9184 173.65ZM113.777 146.7C114.91 146.5 116.227 146.4 117.727 146.4C121.56 146.4 124.66 147.633 127.027 150.1C129.127 152.333 130.177 155.1 130.177 158.4V163.2C130.177 163.967 130.16 164.533 130.127 164.9H131.427V170H130.777L129.127 167.95H128.977C128.71 168.25 128.427 168.533 128.127 168.8C127.127 169.6 126.01 170 124.777 170H108.727V164.9H122.827C123.66 164.9 124.077 164.483 124.077 163.65V159C124.077 156.7 123.377 154.85 121.977 153.45C120.677 152.15 118.793 151.45 116.327 151.35C115.193 151.35 114.343 151.417 113.777 151.55V146.7ZM143.238 147.55C147.038 145.883 150.755 145.05 154.388 145.05C159.088 145.05 162.672 146.517 165.138 149.45C167.238 151.983 168.288 155.333 168.288 159.5V164.5C168.288 166 167.722 167.317 166.588 168.45C165.555 169.483 164.322 170 162.888 170H150.738C149.005 170 147.772 169.817 147.038 169.45H146.838C146.105 169.817 144.872 170 143.138 170H131.038V164.9H140.038C139.472 164.1 139.055 163.25 138.788 162.35C138.455 161.383 138.288 160.3 138.288 159.1C138.288 157.1 138.788 155.333 139.788 153.8C140.622 152.567 141.772 151.633 143.238 151V147.55ZM162.188 160.3C162.188 156.567 161.372 153.867 159.738 152.2C158.205 150.667 155.872 149.9 152.738 149.9C151.305 149.9 149.822 150.067 148.288 150.4C150.422 150.7 152.155 151.6 153.488 153.1C154.888 154.667 155.588 156.667 155.588 159.1C155.588 160.2 155.438 161.233 155.138 162.2C154.838 163.233 154.422 164.133 153.888 164.9H160.888C161.255 164.9 161.555 164.8 161.788 164.6C162.055 164.333 162.188 164.017 162.188 163.65V160.3ZM146.888 164.3C148.055 164.167 148.938 163.65 149.538 162.75C150.138 161.883 150.472 160.733 150.538 159.3C150.538 157.7 150.172 156.483 149.438 155.65C148.738 154.85 147.888 154.45 146.888 154.45C145.555 154.45 144.555 155.05 143.888 156.25C143.422 157.117 143.188 158.133 143.188 159.3C143.255 160.633 143.555 161.733 144.088 162.6C144.755 163.6 145.688 164.167 146.888 164.3ZM225.863 134.2V164.15C225.863 164.483 225.846 164.733 225.813 164.9H228.363V170H226.463L224.813 167.95H224.663C223.63 169.317 222.23 170 220.463 170H192.463C190.263 170 188.33 169.25 186.663 167.75C184.696 165.95 183.713 163.7 183.713 161V153.1L186.813 150.6H189.813V161C189.813 162 190.13 162.867 190.763 163.6C191.563 164.467 192.53 164.9 193.663 164.9H218.513C218.946 164.9 219.263 164.767 219.463 164.5C219.663 164.3 219.763 164.017 219.763 163.65V134.2H225.863ZM201.113 150.6C200.713 149.9 200.396 149.117 200.163 148.25C200.03 147.75 199.963 147.2 199.963 146.6C200.03 144.7 200.663 143.217 201.863 142.15C203.063 141.083 204.696 140.55 206.763 140.55C207.73 140.55 208.613 140.65 209.413 140.85V143.7C208.713 143.5 208.03 143.4 207.363 143.4C205.096 143.4 203.896 144.533 203.763 146.8C203.763 147.533 203.913 148.233 204.213 148.9C204.713 150.033 205.68 150.6 207.113 150.6H212.113V151.9L210.663 153.7H197.413V150.6H201.113ZM232.862 136C233.762 136 234.529 136.317 235.162 136.95C235.795 137.583 236.112 138.35 236.112 139.25C236.112 140.117 235.795 140.867 235.162 141.5C234.529 142.133 233.762 142.45 232.862 142.45C231.962 142.45 231.195 142.133 230.562 141.5C229.929 140.867 229.612 140.117 229.612 139.25C229.612 138.35 229.929 137.583 230.562 136.95C231.195 136.317 231.962 136 232.862 136ZM240.462 136C241.362 136 242.129 136.317 242.762 136.95C243.395 137.583 243.712 138.35 243.712 139.25C243.712 140.117 243.395 140.867 242.762 141.5C242.129 142.133 241.362 142.45 240.462 142.45C239.595 142.45 238.845 142.133 238.212 141.5C237.579 140.867 237.262 140.117 237.262 139.25C237.262 138.35 237.579 137.583 238.212 136.95C238.845 136.317 239.595 136 240.462 136ZM243.062 147V164.15V164.9H245.612V170H243.862L242.012 167.95H241.912C240.779 169.317 239.362 170 237.662 170H228.012V164.9H235.562C236.029 164.9 236.362 164.767 236.562 164.5C236.862 164.233 237.012 163.9 237.012 163.5V147H243.062ZM260.298 134.2V164.15V164.9H262.848V170H261.148L259.248 167.95H259.148C258.015 169.317 256.598 170 254.898 170H245.248V164.9H252.948C253.348 164.9 253.682 164.767 253.948 164.5C254.148 164.167 254.248 163.883 254.248 163.65V134.2H260.298ZM277.485 155.4C281.951 149.367 287.468 146.35 294.035 146.35C298.035 146.35 301.335 147.6 303.935 150.1C306.301 152.4 307.485 155.267 307.485 158.7V164.5C307.485 166 306.968 167.267 305.935 168.3C304.901 169.433 303.618 170 302.085 170H262.435V164.9H271.435V147H277.485V155.4ZM301.385 159C301.385 156.933 300.718 155.267 299.385 154C297.785 152.4 295.685 151.6 293.085 151.6C290.518 151.6 288.018 152.45 285.585 154.15C282.318 156.417 279.618 160 277.485 164.9H300.135C300.968 164.9 301.385 164.483 301.385 163.65V159ZM328.542 169.8C327.109 170.2 325.709 170.4 324.342 170.4C320.809 170.4 317.942 169.033 315.742 166.3C313.942 164 313.042 161.283 313.042 158.15C313.042 154.717 314.059 151.933 316.092 149.8C318.192 147.533 321.042 146.4 324.642 146.4C327.309 146.4 329.542 147.083 331.342 148.45C333.609 150.083 334.742 152.483 334.742 155.65V168.8C334.742 173.1 333.376 176.4 330.642 178.7C329.076 180.033 327.126 180.967 324.792 181.5C323.626 181.767 322.326 181.9 320.892 181.9C320.526 181.9 319.942 181.867 319.142 181.8L316.692 178.75V176.6C317.759 176.767 318.809 176.85 319.842 176.85C325.209 176.85 328.109 174.5 328.542 169.8ZM328.642 155.65C328.642 154.217 328.159 153.117 327.192 152.35C326.526 151.783 325.676 151.5 324.642 151.5C322.909 151.5 321.542 152.1 320.542 153.3C319.576 154.5 319.092 156.15 319.092 158.25C319.092 160.417 319.642 162.133 320.742 163.4C321.876 164.633 323.409 165.25 325.342 165.25C326.409 165.25 327.509 165.05 328.642 164.65V155.65Z" fill="black"/>
<g filter="url(#filter0_d_287_18)">
<path d="M142.065 28.264V77.128L137.937 80.488H133.905V28.264H142.065ZM138.129 88.072C139.473 88.072 140.593 88.52 141.489 89.416C142.385 90.312 142.833 91.432 142.833 92.776C142.833 94.056 142.385 95.176 141.489 96.136C140.593 97.032 139.473 97.48 138.129 97.48C136.849 97.48 135.729 97.032 134.769 96.136C133.873 95.176 133.425 94.056 133.425 92.776C133.425 91.432 133.873 90.312 134.769 89.416C135.729 88.52 136.849 88.072 138.129 88.072ZM203.775 96.04C200.447 97.256 196.959 97.864 193.311 97.864C186.399 97.864 180.927 95.432 176.895 90.568C173.311 86.28 171.519 80.808 171.519 74.152C171.519 67.432 173.407 62.056 177.183 58.024C181.215 53.8 186.655 51.688 193.503 51.688C198.687 51.688 202.911 53 206.175 55.624C210.079 58.76 212.031 63.272 212.031 69.16V96.136C211.967 104.328 209.279 110.504 203.967 114.664C201.279 116.776 198.047 118.248 194.271 119.08C191.775 119.592 189.183 119.848 186.495 119.848C184.959 119.848 183.487 119.816 182.079 119.752L178.911 115.816V112.744C180.831 113 182.847 113.128 184.959 113.128C197.439 113.128 203.711 107.432 203.775 96.04ZM203.775 69.16C203.775 65.192 202.367 62.216 199.551 60.232C197.951 59.144 195.935 58.6 193.503 58.6C189.215 58.6 185.823 60.04 183.327 62.92C180.895 65.8 179.679 69.8 179.679 74.92C179.679 79.784 181.087 83.624 183.903 86.44C186.399 89.064 189.727 90.376 193.887 90.376C197.535 90.376 200.831 89.8 203.775 88.648V69.16ZM232.597 28.264V96.04L228.469 99.4H224.437V28.264H232.597ZM254.451 28.264V96.04L250.323 99.4H246.291V28.264H254.451ZM276.306 28.264V96.04L272.178 99.4H268.146V28.264H276.306ZM320.914 96.04C317.586 97.256 314.098 97.864 310.45 97.864C303.538 97.864 298.066 95.432 294.034 90.568C290.45 86.28 288.658 80.808 288.658 74.152C288.658 67.432 290.546 62.056 294.322 58.024C298.354 53.8 303.794 51.688 310.642 51.688C315.826 51.688 320.05 53 323.314 55.624C327.218 58.76 329.17 63.272 329.17 69.16V96.136C329.106 104.328 326.418 110.504 321.106 114.664C318.418 116.776 315.186 118.248 311.41 119.08C308.914 119.592 306.322 119.848 303.634 119.848C302.098 119.848 300.626 119.816 299.218 119.752L296.05 115.816V112.744C297.97 113 299.986 113.128 302.098 113.128C314.578 113.128 320.85 107.432 320.914 96.04ZM320.914 69.16C320.914 65.192 319.506 62.216 316.69 60.232C315.09 59.144 313.074 58.6 310.642 58.6C306.354 58.6 302.962 60.04 300.466 62.92C298.034 65.8 296.818 69.8 296.818 74.92C296.818 79.784 298.226 83.624 301.042 86.44C303.538 89.064 306.866 90.376 311.026 90.376C314.674 90.376 317.97 89.8 320.914 88.648V69.16Z" fill="black"/>
<path d="M142.065 28.264H143.065V27.264H142.065V28.264ZM142.065 77.128L142.696 77.9036L143.065 77.6034V77.128H142.065ZM137.937 80.488V81.488H138.292L138.568 81.2636L137.937 80.488ZM133.905 80.488H132.905V81.488H133.905V80.488ZM133.905 28.264V27.264H132.905V28.264H133.905ZM141.489 96.136L142.196 96.8431L142.208 96.8309L142.22 96.8183L141.489 96.136ZM134.769 96.136L134.038 96.8183L134.061 96.8435L134.086 96.8671L134.769 96.136ZM134.769 89.416L134.086 88.6849L134.074 88.6967L134.062 88.7089L134.769 89.416ZM141.065 28.264V77.128H143.065V28.264H141.065ZM141.433 76.3524L137.305 79.7124L138.568 81.2636L142.696 77.9036L141.433 76.3524ZM137.937 79.488H133.905V81.488H137.937V79.488ZM134.905 80.488V28.264H132.905V80.488H134.905ZM133.905 29.264H142.065V27.264H133.905V29.264ZM138.129 89.072C139.225 89.072 140.085 89.4269 140.782 90.1231L142.196 88.7089C141.1 87.6131 139.72 87.072 138.129 87.072V89.072ZM140.782 90.1231C141.478 90.8193 141.833 91.6794 141.833 92.776H143.833C143.833 91.1846 143.292 89.8047 142.196 88.7089L140.782 90.1231ZM141.833 92.776C141.833 93.7955 141.486 94.6735 140.758 95.4537L142.22 96.8183C143.284 95.6785 143.833 94.3165 143.833 92.776H141.833ZM140.782 95.4289C140.085 96.1251 139.225 96.48 138.129 96.48V98.48C139.72 98.48 141.1 97.9389 142.196 96.8431L140.782 95.4289ZM138.129 96.48C137.109 96.48 136.231 96.1331 135.451 95.4049L134.086 96.8671C135.226 97.9309 136.588 98.48 138.129 98.48V96.48ZM135.5 95.4537C134.772 94.6735 134.425 93.7955 134.425 92.776H132.425C132.425 94.3165 132.974 95.6785 134.038 96.8183L135.5 95.4537ZM134.425 92.776C134.425 91.6794 134.78 90.8193 135.476 90.1231L134.062 88.7089C132.966 89.8047 132.425 91.1846 132.425 92.776H134.425ZM135.451 90.1471C136.231 89.4189 137.109 89.072 138.129 89.072V87.072C136.588 87.072 135.226 87.6211 134.086 88.6849L135.451 90.1471ZM203.775 96.04L204.775 96.0456L204.783 94.607L203.432 95.1007L203.775 96.04ZM176.895 90.568L177.665 89.9298L177.662 89.9267L176.895 90.568ZM177.183 58.024L176.459 57.3335L176.453 57.3404L177.183 58.024ZM206.175 55.624L205.548 56.4034L205.548 56.4036L206.175 55.624ZM212.031 96.136L213.031 96.1438V96.136H212.031ZM203.967 114.664L203.35 113.877L203.349 113.878L203.967 114.664ZM194.271 119.08L194.472 120.06L194.479 120.058L194.486 120.057L194.271 119.08ZM182.079 119.752L181.3 120.379L181.583 120.73L182.033 120.751L182.079 119.752ZM178.911 115.816H177.911V116.168L178.132 116.443L178.911 115.816ZM178.911 112.744L179.043 111.753L177.911 111.602V112.744H178.911ZM199.551 60.232L200.127 59.4145L200.12 59.4097L200.113 59.4051L199.551 60.232ZM183.327 62.92L182.571 62.265L182.563 62.2748L183.327 62.92ZM183.903 86.44L184.627 85.7508L184.619 85.7417L184.61 85.7329L183.903 86.44ZM203.775 88.648L204.139 89.5792L204.775 89.3305V88.648H203.775ZM203.432 95.1007C200.217 96.2754 196.845 96.864 193.311 96.864V98.864C197.072 98.864 200.677 98.2366 204.118 96.9793L203.432 95.1007ZM193.311 96.864C186.665 96.864 181.487 94.5412 177.665 89.9298L176.125 91.2062C180.366 96.3228 186.133 98.864 193.311 98.864V96.864ZM177.662 89.9267C174.256 85.8515 172.519 80.6204 172.519 74.152H170.519C170.519 80.9956 172.366 86.7085 176.127 91.2093L177.662 89.9267ZM172.519 74.152C172.519 67.6279 174.346 62.5159 177.913 58.7076L176.453 57.3404C172.467 61.5961 170.519 67.2361 170.519 74.152H172.519ZM177.906 58.7145C181.717 54.7224 186.877 52.688 193.503 52.688V50.688C186.433 50.688 180.713 52.8776 176.459 57.3335L177.906 58.7145ZM193.503 52.688C198.515 52.688 202.501 53.9535 205.548 56.4034L206.801 54.8446C203.321 52.0465 198.859 50.688 193.503 50.688V52.688ZM205.548 56.4036C209.173 59.3154 211.031 63.5155 211.031 69.16H213.031C213.031 63.0285 210.984 58.2046 206.801 54.8444L205.548 56.4036ZM211.031 69.16V96.136H213.031V69.16H211.031ZM211.031 96.1282C210.969 104.088 208.371 109.945 203.35 113.877L204.583 115.451C210.187 111.063 212.965 104.568 213.031 96.1438L211.031 96.1282ZM203.349 113.878C200.794 115.885 197.704 117.3 194.056 118.103L194.486 120.057C198.389 119.196 201.764 117.667 204.585 115.45L203.349 113.878ZM194.07 118.1C191.643 118.598 189.119 118.848 186.495 118.848V120.848C189.247 120.848 191.906 120.586 194.472 120.06L194.07 118.1ZM186.495 118.848C184.973 118.848 183.516 118.816 182.124 118.753L182.033 120.751C183.458 120.816 184.945 120.848 186.495 120.848V118.848ZM182.858 119.125L179.69 115.189L178.132 116.443L181.3 120.379L182.858 119.125ZM179.911 115.816V112.744H177.911V115.816H179.911ZM178.779 113.735C180.746 113.998 182.806 114.128 184.959 114.128V112.128C182.887 112.128 180.915 112.002 179.043 111.753L178.779 113.735ZM184.959 114.128C191.332 114.128 196.304 112.675 199.695 109.596C203.103 106.502 204.742 101.921 204.775 96.0456L202.775 96.0344C202.744 101.551 201.215 105.514 198.35 108.116C195.469 110.733 191.066 112.128 184.959 112.128V114.128ZM204.775 69.16C204.775 64.9237 203.252 61.6164 200.127 59.4145L198.975 61.0495C201.482 62.8156 202.775 65.4603 202.775 69.16H204.775ZM200.113 59.4051C198.309 58.1784 196.084 57.6 193.503 57.6V59.6C195.786 59.6 197.592 60.1096 198.988 61.0589L200.113 59.4051ZM193.503 57.6C188.965 57.6 185.282 59.137 182.571 62.2651L184.082 63.5749C186.363 60.943 189.464 59.6 193.503 59.6V57.6ZM182.563 62.2748C179.931 65.3909 178.679 69.6486 178.679 74.92H180.679C180.679 69.9514 181.858 66.2091 184.091 63.5652L182.563 62.2748ZM178.679 74.92C178.679 79.9867 180.152 84.1036 183.196 87.1471L184.61 85.7329C182.021 83.1444 180.679 79.5813 180.679 74.92H178.679ZM183.178 87.1292C185.892 89.9818 189.497 91.376 193.887 91.376V89.376C189.956 89.376 186.906 88.1462 184.627 85.7508L183.178 87.1292ZM193.887 91.376C197.64 91.376 201.063 90.7831 204.139 89.5792L203.41 87.7168C200.599 88.8169 197.429 89.376 193.887 89.376V91.376ZM204.775 88.648V69.16H202.775V88.648H204.775ZM232.596 28.264H233.596V27.264H232.596V28.264ZM232.596 96.04L233.228 96.8156L233.596 96.5154V96.04H232.596ZM228.469 99.4V100.4H228.824L229.1 100.176L228.469 99.4ZM224.436 99.4H223.436V100.4H224.436V99.4ZM224.436 28.264V27.264H223.436V28.264H224.436ZM231.596 28.264V96.04H233.596V28.264H231.596ZM231.965 95.2644L227.837 98.6244L229.1 100.176L233.228 96.8156L231.965 95.2644ZM228.469 98.4H224.436V100.4H228.469V98.4ZM225.436 99.4V28.264H223.436V99.4H225.436ZM224.436 29.264H232.596V27.264H224.436V29.264ZM254.451 28.264H255.451V27.264H254.451V28.264ZM254.451 96.04L255.083 96.8156L255.451 96.5154V96.04H254.451ZM250.324 99.4V100.4H250.679L250.955 100.176L250.324 99.4ZM246.292 99.4H245.292V100.4H246.292V99.4ZM246.292 28.264V27.264H245.292V28.264H246.292ZM253.451 28.264V96.04H255.451V28.264H253.451ZM253.82 95.2644L249.692 98.6244L250.955 100.176L255.083 96.8156L253.82 95.2644ZM250.324 98.4H246.292V100.4H250.324V98.4ZM247.292 99.4V28.264H245.292V99.4H247.292ZM246.292 29.264H254.451V27.264H246.292V29.264ZM276.306 28.264H277.306V27.264H276.306V28.264ZM276.306 96.04L276.938 96.8156L277.306 96.5154V96.04H276.306ZM272.178 99.4V100.4H272.534L272.81 100.176L272.178 99.4ZM268.146 99.4H267.146V100.4H268.146V99.4ZM268.146 28.264V27.264H267.146V28.264H268.146ZM275.306 28.264V96.04H277.306V28.264H275.306ZM275.675 95.2644L271.547 98.6244L272.81 100.176L276.938 96.8156L275.675 95.2644ZM272.178 98.4H268.146V100.4H272.178V98.4ZM269.146 99.4V28.264H267.146V99.4H269.146ZM268.146 29.264H276.306V27.264H268.146V29.264ZM320.914 96.04L321.913 96.0456L321.922 94.607L320.57 95.1007L320.914 96.04ZM294.034 90.568L294.803 89.9298L294.801 89.9267L294.034 90.568ZM294.322 58.024L293.598 57.3335L293.592 57.3404L294.322 58.024ZM323.314 55.624L322.687 56.4034L322.687 56.4036L323.314 55.624ZM329.169 96.136L330.169 96.1438V96.136H329.169ZM321.105 114.664L320.489 113.877L320.488 113.878L321.105 114.664ZM311.41 119.08L311.61 120.06L311.618 120.058L311.625 120.057L311.41 119.08ZM299.217 119.752L298.438 120.379L298.721 120.73L299.172 120.751L299.217 119.752ZM296.049 115.816H295.049V116.168L295.27 116.443L296.049 115.816ZM296.049 112.744L296.182 111.753L295.049 111.602V112.744H296.049ZM316.689 60.232L317.265 59.4145L317.259 59.4097L317.252 59.4051L316.689 60.232ZM300.465 62.92L299.71 62.265L299.701 62.2748L300.465 62.92ZM301.042 86.44L301.766 85.7508L301.757 85.7417L301.749 85.7329L301.042 86.44ZM320.914 88.648L321.278 89.5792L321.914 89.3305V88.648H320.914ZM320.57 95.1007C317.356 96.2754 313.984 96.864 310.45 96.864V98.864C314.211 98.864 317.815 98.2366 321.257 96.9793L320.57 95.1007ZM310.45 96.864C303.803 96.864 298.626 94.5412 294.803 89.9298L293.264 91.2062C297.505 96.3228 303.272 98.864 310.45 98.864V96.864ZM294.801 89.9267C291.395 85.8515 289.658 80.6204 289.658 74.152H287.658C287.658 80.9956 289.504 86.7085 293.266 91.2093L294.801 89.9267ZM289.658 74.152C289.658 67.6279 291.485 62.5159 295.051 58.7076L293.592 57.3404C289.606 61.5961 287.658 67.2361 287.658 74.152H289.658ZM295.045 58.7145C298.855 54.7224 304.016 52.688 310.642 52.688V50.688C303.571 50.688 297.852 52.8776 293.598 57.3335L295.045 58.7145ZM310.642 52.688C315.653 52.688 319.64 53.9535 322.687 56.4034L323.94 54.8446C320.459 52.0465 315.998 50.688 310.642 50.688V52.688ZM322.687 56.4036C326.312 59.3154 328.169 63.5155 328.169 69.16H330.169C330.169 63.0285 328.123 58.2046 323.94 54.8444L322.687 56.4036ZM328.169 69.16V96.136H330.169V69.16H328.169ZM328.17 96.1282C328.107 104.088 325.509 109.945 320.489 113.877L321.722 115.451C327.326 111.063 330.104 104.568 330.169 96.1438L328.17 96.1282ZM320.488 113.878C317.933 115.885 314.843 117.3 311.194 118.103L311.625 120.057C315.528 119.196 318.902 117.667 321.723 115.45L320.488 113.878ZM311.209 118.1C308.782 118.598 306.258 118.848 303.633 118.848V120.848C306.385 120.848 309.045 120.586 311.61 120.06L311.209 118.1ZM303.633 118.848C302.111 118.848 300.655 118.816 299.263 118.753L299.172 120.751C300.596 120.816 302.084 120.848 303.633 120.848V118.848ZM299.997 119.125L296.829 115.189L295.27 116.443L298.438 120.379L299.997 119.125ZM297.049 115.816V112.744H295.049V115.816H297.049ZM295.917 113.735C297.885 113.998 299.945 114.128 302.098 114.128V112.128C300.026 112.128 298.054 112.002 296.182 111.753L295.917 113.735ZM302.098 114.128C308.471 114.128 313.443 112.675 316.834 109.596C320.241 106.502 321.88 101.921 321.913 96.0456L319.914 96.0344C319.883 101.551 318.354 105.514 315.489 108.116C312.608 110.733 308.204 112.128 302.098 112.128V114.128ZM321.914 69.16C321.914 64.9237 320.391 61.6164 317.265 59.4145L316.114 61.0495C318.62 62.8156 319.914 65.4603 319.914 69.16H321.914ZM317.252 59.4051C315.448 58.1784 313.222 57.6 310.642 57.6V59.6C312.925 59.6 314.731 60.1096 316.127 61.0589L317.252 59.4051ZM310.642 57.6C306.104 57.6 302.421 59.137 299.71 62.2651L301.221 63.5749C303.502 60.943 306.603 59.6 310.642 59.6V57.6ZM299.701 62.2748C297.07 65.3909 295.818 69.6486 295.818 74.92H297.818C297.818 69.9514 298.997 66.2091 301.23 63.5652L299.701 62.2748ZM295.818 74.92C295.818 79.9867 297.291 84.1036 300.334 87.1471L301.749 85.7329C299.16 83.1444 297.818 79.5813 297.818 74.92H295.818ZM300.317 87.1292C303.03 89.9818 306.636 91.376 311.025 91.376V89.376C307.095 89.376 304.045 88.1462 301.766 85.7508L300.317 87.1292ZM311.025 91.376C314.779 91.376 318.201 90.7831 321.278 89.5792L320.549 87.7168C317.738 88.8169 314.568 89.376 311.025 89.376V91.376ZM321.914 88.648V69.16H319.914V88.648H321.914Z" fill="black"/>
</g>
<defs>
<filter id="filter0_d_287_18" x="129.425" y="28.2639" width="203.745" height="99.584" filterUnits="userSpaceOnUse" color-interpolation-filters="sRGB">
<feFlood flood-opacity="0" result="BackgroundImageFix"/>
<feColorMatrix in="SourceAlpha" type="matrix" values="0 0 0 0 0 0 0 0 0 0 0 0 0 0 0 0 0 0 127 0" result="hardAlpha"/>
<feOffset dy="4"/>
<feGaussianBlur stdDeviation="2"/>
<feComposite in2="hardAlpha" operator="out"/>
<feColorMatrix type="matrix" values="0 0 0 0 0 0 0 0 0 0 0 0 0 0 0 0 0 0 0.25 0"/>
<feBlend mode="normal" in2="BackgroundImageFix" result="effect1_dropShadow_287_18"/>
<feBlend mode="normal" in="SourceGraphic" in2="effect1_dropShadow_287_18" result="shape"/>
</filter>
</defs>
</svg>
