<svg width="399" height="192" viewBox="0 0 399 192" fill="none" xmlns="http://www.w3.org/2000/svg">
<path d="M75.1117 135C76.0117 135 76.7784 135.317 77.4117 135.95C78.0451 136.583 78.3617 137.35 78.3617 138.25C78.3617 139.117 78.0451 139.867 77.4117 140.5C76.7784 141.133 76.0117 141.45 75.1117 141.45C74.2117 141.45 73.4451 141.133 72.8117 140.5C72.1784 139.867 71.8617 139.117 71.8617 138.25C71.8617 137.35 72.1784 136.583 72.8117 135.95C73.4451 135.317 74.2117 135 75.1117 135ZM82.7117 135C83.6117 135 84.3784 135.317 85.0117 135.95C85.6451 136.583 85.9617 137.35 85.9617 138.25C85.9617 139.117 85.6451 139.867 85.0117 140.5C84.3784 141.133 83.6117 141.45 82.7117 141.45C81.8451 141.45 81.0951 141.133 80.4617 140.5C79.8284 139.867 79.5117 139.117 79.5117 138.25C79.5117 137.35 79.8284 136.583 80.4617 135.95C81.0951 135.317 81.8451 135 82.7117 135ZM85.9617 144.65V162.65C85.9617 163.05 86.0784 163.35 86.3117 163.55C86.5117 163.783 86.7784 163.9 87.1117 163.9H88.5117V169H85.3617C83.8284 169 82.4451 168.383 81.2117 167.15C79.3117 168.717 77.1951 169.5 74.8617 169.5C72.2284 169.5 69.9617 168.667 68.0617 167C65.5284 164.633 64.2617 161.467 64.2617 157.5C64.2617 153.867 65.4284 150.85 67.7617 148.45C69.8951 146.283 72.5117 145.2 75.6117 145.2C77.3451 145.2 79.0784 145.567 80.8117 146.3L82.9617 144.65H85.9617ZM79.8617 151.1C78.6951 150.667 77.5784 150.45 76.5117 150.45C74.7117 150.45 73.2284 151.117 72.0617 152.45C70.8951 153.75 70.3117 155.45 70.3117 157.55C70.3117 159.65 70.8284 161.333 71.8617 162.6C72.9284 163.867 74.3451 164.5 76.1117 164.5C77.3117 164.5 78.5617 164.233 79.8617 163.7V151.1ZM103.218 146V163.5C103.218 164.8 102.785 166 101.918 167.1C100.818 168.367 99.4517 169 97.8184 169H88.1684V163.9H95.8684C96.235 163.9 96.5517 163.767 96.8184 163.5C97.0517 163.267 97.1684 162.983 97.1684 162.65V146H103.218ZM92.2684 172.65C93.1684 172.65 93.935 172.967 94.5684 173.6C95.2017 174.233 95.5184 175 95.5184 175.9C95.5184 176.8 95.2017 177.567 94.5684 178.2C93.935 178.833 93.1684 179.15 92.2684 179.15C91.4017 179.15 90.6517 178.833 90.0184 178.2C89.385 177.567 89.0684 176.8 89.0684 175.9C89.0684 175 89.385 174.233 90.0184 173.6C90.6517 172.967 91.4017 172.65 92.2684 172.65ZM99.9184 172.65C100.818 172.65 101.568 172.967 102.168 173.6C102.802 174.233 103.118 175 103.118 175.9C103.118 176.8 102.802 177.567 102.168 178.2C101.568 178.833 100.818 179.15 99.9184 179.15C99.0184 179.15 98.2517 178.833 97.6184 178.2C96.985 177.567 96.6684 176.8 96.6684 175.9C96.6684 175 96.985 174.233 97.6184 173.6C98.2517 172.967 99.0184 172.65 99.9184 172.65ZM113.777 145.7C114.91 145.5 116.227 145.4 117.727 145.4C121.56 145.4 124.66 146.633 127.027 149.1C129.127 151.333 130.177 154.1 130.177 157.4V162.2C130.177 162.967 130.16 163.533 130.127 163.9H131.427V169H130.777L129.127 166.95H128.977C128.71 167.25 128.427 167.533 128.127 167.8C127.127 168.6 126.01 169 124.777 169H108.727V163.9H122.827C123.66 163.9 124.077 163.483 124.077 162.65V158C124.077 155.7 123.377 153.85 121.977 152.45C120.677 151.15 118.793 150.45 116.327 150.35C115.193 150.35 114.343 150.417 113.777 150.55V145.7ZM143.238 146.55C147.038 144.883 150.755 144.05 154.388 144.05C159.088 144.05 162.672 145.517 165.138 148.45C167.238 150.983 168.288 154.333 168.288 158.5V163.5C168.288 165 167.722 166.317 166.588 167.45C165.555 168.483 164.322 169 162.888 169H150.738C149.005 169 147.772 168.817 147.038 168.45H146.838C146.105 168.817 144.872 169 143.138 169H131.038V163.9H140.038C139.472 163.1 139.055 162.25 138.788 161.35C138.455 160.383 138.288 159.3 138.288 158.1C138.288 156.1 138.788 154.333 139.788 152.8C140.622 151.567 141.772 150.633 143.238 150V146.55ZM162.188 159.3C162.188 155.567 161.372 152.867 159.738 151.2C158.205 149.667 155.872 148.9 152.738 148.9C151.305 148.9 149.822 149.067 148.288 149.4C150.422 149.7 152.155 150.6 153.488 152.1C154.888 153.667 155.588 155.667 155.588 158.1C155.588 159.2 155.438 160.233 155.138 161.2C154.838 162.233 154.422 163.133 153.888 163.9H160.888C161.255 163.9 161.555 163.8 161.788 163.6C162.055 163.333 162.188 163.017 162.188 162.65V159.3ZM146.888 163.3C148.055 163.167 148.938 162.65 149.538 161.75C150.138 160.883 150.472 159.733 150.538 158.3C150.538 156.7 150.172 155.483 149.438 154.65C148.738 153.85 147.888 153.45 146.888 153.45C145.555 153.45 144.555 154.05 143.888 155.25C143.422 156.117 143.188 157.133 143.188 158.3C143.255 159.633 143.555 160.733 144.088 161.6C144.755 162.6 145.688 163.167 146.888 163.3ZM225.863 133.2V163.15C225.863 163.483 225.846 163.733 225.813 163.9H228.363V169H226.463L224.813 166.95H224.663C223.63 168.317 222.23 169 220.463 169H192.463C190.263 169 188.33 168.25 186.663 166.75C184.696 164.95 183.713 162.7 183.713 160V152.1L186.813 149.6H189.813V160C189.813 161 190.13 161.867 190.763 162.6C191.563 163.467 192.53 163.9 193.663 163.9H218.513C218.946 163.9 219.263 163.767 219.463 163.5C219.663 163.3 219.763 163.017 219.763 162.65V133.2H225.863ZM201.113 149.6C200.713 148.9 200.396 148.117 200.163 147.25C200.03 146.75 199.963 146.2 199.963 145.6C200.03 143.7 200.663 142.217 201.863 141.15C203.063 140.083 204.696 139.55 206.763 139.55C207.73 139.55 208.613 139.65 209.413 139.85V142.7C208.713 142.5 208.03 142.4 207.363 142.4C205.096 142.4 203.896 143.533 203.763 145.8C203.763 146.533 203.913 147.233 204.213 147.9C204.713 149.033 205.68 149.6 207.113 149.6H212.113V150.9L210.663 152.7H197.413V149.6H201.113ZM232.862 135C233.762 135 234.529 135.317 235.162 135.95C235.795 136.583 236.112 137.35 236.112 138.25C236.112 139.117 235.795 139.867 235.162 140.5C234.529 141.133 233.762 141.45 232.862 141.45C231.962 141.45 231.195 141.133 230.562 140.5C229.929 139.867 229.612 139.117 229.612 138.25C229.612 137.35 229.929 136.583 230.562 135.95C231.195 135.317 231.962 135 232.862 135ZM240.462 135C241.362 135 242.129 135.317 242.762 135.95C243.395 136.583 243.712 137.35 243.712 138.25C243.712 139.117 243.395 139.867 242.762 140.5C242.129 141.133 241.362 141.45 240.462 141.45C239.595 141.45 238.845 141.133 238.212 140.5C237.579 139.867 237.262 139.117 237.262 138.25C237.262 137.35 237.579 136.583 238.212 135.95C238.845 135.317 239.595 135 240.462 135ZM243.062 146V163.15V163.9H245.612V169H243.862L242.012 166.95H241.912C240.779 168.317 239.362 169 237.662 169H228.012V163.9H235.562C236.029 163.9 236.362 163.767 236.562 163.5C236.862 163.233 237.012 162.9 237.012 162.5V146H243.062ZM260.298 133.2V163.15V163.9H262.848V169H261.148L259.248 166.95H259.148C258.015 168.317 256.598 169 254.898 169H245.248V163.9H252.948C253.348 163.9 253.682 163.767 253.948 163.5C254.148 163.167 254.248 162.883 254.248 162.65V133.2H260.298ZM277.485 154.4C281.951 148.367 287.468 145.35 294.035 145.35C298.035 145.35 301.335 146.6 303.935 149.1C306.301 151.4 307.485 154.267 307.485 157.7V163.5C307.485 165 306.968 166.267 305.935 167.3C304.901 168.433 303.618 169 302.085 169H262.435V163.9H271.435V146H277.485V154.4ZM301.385 158C301.385 155.933 300.718 154.267 299.385 153C297.785 151.4 295.685 150.6 293.085 150.6C290.518 150.6 288.018 151.45 285.585 153.15C282.318 155.417 279.618 159 277.485 163.9H300.135C300.968 163.9 301.385 163.483 301.385 162.65V158ZM328.542 168.8C327.109 169.2 325.709 169.4 324.342 169.4C320.809 169.4 317.942 168.033 315.742 165.3C313.942 163 313.042 160.283 313.042 157.15C313.042 153.717 314.059 150.933 316.092 148.8C318.192 146.533 321.042 145.4 324.642 145.4C327.309 145.4 329.542 146.083 331.342 147.45C333.609 149.083 334.742 151.483 334.742 154.65V167.8C334.742 172.1 333.376 175.4 330.642 177.7C329.076 179.033 327.126 179.967 324.792 180.5C323.626 180.767 322.326 180.9 320.892 180.9C320.526 180.9 319.942 180.867 319.142 180.8L316.692 177.75V175.6C317.759 175.767 318.809 175.85 319.842 175.85C325.209 175.85 328.109 173.5 328.542 168.8ZM328.642 154.65C328.642 153.217 328.159 152.117 327.192 151.35C326.526 150.783 325.676 150.5 324.642 150.5C322.909 150.5 321.542 151.1 320.542 152.3C319.576 153.5 319.092 155.15 319.092 157.25C319.092 159.417 319.642 161.133 320.742 162.4C321.876 163.633 323.409 164.25 325.342 164.25C326.409 164.25 327.509 164.05 328.642 163.65V154.65Z" fill="black"/>
<g filter="url(#filter0_d_287_18)">
<path d="M136.972 28.264V77.128L132.844 80.488H128.812V28.264H136.972ZM133.036 88.072C134.38 88.072 135.5 88.52 136.396 89.416C137.292 90.312 137.74 91.432 137.74 92.776C137.74 94.056 137.292 95.176 136.396 96.136C135.5 97.032 134.38 97.48 133.036 97.48C131.756 97.48 130.636 97.032 129.676 96.136C128.78 95.176 128.332 94.056 128.332 92.776C128.332 91.432 128.78 90.312 129.676 89.416C130.636 88.52 131.756 88.072 133.036 88.072ZM180.577 96.04C177.249 97.256 173.761 97.864 170.113 97.864C163.201 97.864 157.729 95.432 153.697 90.568C150.113 86.28 148.321 80.808 148.321 74.152C148.321 67.432 150.209 62.056 153.985 58.024C158.017 53.8 163.457 51.688 170.305 51.688C175.489 51.688 179.713 53 182.977 55.624C186.881 58.76 188.833 63.272 188.833 69.16V96.136C188.769 104.328 186.081 110.504 180.769 114.664C178.081 116.776 174.849 118.248 171.073 119.08C168.577 119.592 165.985 119.848 163.297 119.848C161.761 119.848 160.289 119.816 158.881 119.752L155.713 115.816V112.744C157.633 113 159.649 113.128 161.761 113.128C174.241 113.128 180.513 107.432 180.577 96.04ZM180.577 69.16C180.577 65.192 179.169 62.216 176.353 60.232C174.753 59.144 172.737 58.6 170.305 58.6C166.017 58.6 162.625 60.04 160.129 62.92C157.697 65.8 156.481 69.8 156.481 74.92C156.481 79.784 157.889 83.624 160.705 86.44C163.201 89.064 166.529 90.376 170.689 90.376C174.337 90.376 177.633 89.8 180.577 88.648V69.16ZM209.399 28.264V96.04L205.271 99.4H201.239V28.264H209.399ZM254.006 96.04C250.678 97.256 247.19 97.864 243.542 97.864C236.63 97.864 231.158 95.432 227.126 90.568C223.542 86.28 221.75 80.808 221.75 74.152C221.75 67.432 223.638 62.056 227.414 58.024C231.446 53.8 236.886 51.688 243.734 51.688C248.918 51.688 253.142 53 256.406 55.624C260.31 58.76 262.262 63.272 262.262 69.16V96.136C262.198 104.328 259.51 110.504 254.198 114.664C251.51 116.776 248.278 118.248 244.502 119.08C242.006 119.592 239.414 119.848 236.726 119.848C235.19 119.848 233.718 119.816 232.31 119.752L229.142 115.816V112.744C231.062 113 233.078 113.128 235.19 113.128C247.67 113.128 253.942 107.432 254.006 96.04ZM254.006 69.16C254.006 65.192 252.598 62.216 249.782 60.232C248.182 59.144 246.166 58.6 243.734 58.6C239.446 58.6 236.054 60.04 233.558 62.92C231.126 65.8 229.91 69.8 229.91 74.92C229.91 79.784 231.318 83.624 234.134 86.44C236.63 89.064 239.958 90.376 244.118 90.376C247.766 90.376 251.062 89.8 254.006 88.648V69.16Z" fill="black"/>
<path d="M136.972 28.264H137.972V27.264H136.972V28.264ZM136.972 77.128L137.604 77.9036L137.972 77.6034V77.128H136.972ZM132.844 80.488V81.488H133.2L133.476 81.2636L132.844 80.488ZM128.812 80.488H127.812V81.488H128.812V80.488ZM128.812 28.264V27.264H127.812V28.264H128.812ZM136.396 96.136L137.103 96.8431L137.116 96.8309L137.127 96.8183L136.396 96.136ZM129.676 96.136L128.945 96.8183L128.969 96.8435L128.994 96.8671L129.676 96.136ZM129.676 89.416L128.994 88.6849L128.981 88.6967L128.969 88.7089L129.676 89.416ZM135.972 28.264V77.128H137.972V28.264H135.972ZM136.341 76.3524L132.213 79.7124L133.476 81.2636L137.604 77.9036L136.341 76.3524ZM132.844 79.488H128.812V81.488H132.844V79.488ZM129.812 80.488V28.264H127.812V80.488H129.812ZM128.812 29.264H136.972V27.264H128.812V29.264ZM133.036 89.072C134.133 89.072 134.993 89.4269 135.689 90.1231L137.103 88.7089C136.008 87.6131 134.628 87.072 133.036 87.072V89.072ZM135.689 90.1231C136.385 90.8193 136.74 91.6794 136.74 92.776H138.74C138.74 91.1846 138.199 89.8047 137.103 88.7089L135.689 90.1231ZM136.74 92.776C136.74 93.7955 136.393 94.6735 135.665 95.4537L137.127 96.8183C138.191 95.6785 138.74 94.3165 138.74 92.776H136.74ZM135.689 95.4289C134.993 96.1251 134.133 96.48 133.036 96.48V98.48C134.628 98.48 136.008 97.9389 137.103 96.8431L135.689 95.4289ZM133.036 96.48C132.017 96.48 131.139 96.1331 130.359 95.4049L128.994 96.8671C130.134 97.9309 131.496 98.48 133.036 98.48V96.48ZM130.407 95.4537C129.679 94.6735 129.332 93.7955 129.332 92.776H127.332C127.332 94.3165 127.881 95.6785 128.945 96.8183L130.407 95.4537ZM129.332 92.776C129.332 91.6794 129.687 90.8193 130.383 90.1231L128.969 88.7089C127.873 89.8047 127.332 91.1846 127.332 92.776H129.332ZM130.359 90.1471C131.139 89.4189 132.017 89.072 133.036 89.072V87.072C131.496 87.072 130.134 87.6211 128.994 88.6849L130.359 90.1471ZM180.577 96.04L181.577 96.0456L181.585 94.607L180.234 95.1007L180.577 96.04ZM153.697 90.568L154.467 89.9298L154.465 89.9267L153.697 90.568ZM153.985 58.024L153.262 57.3335L153.255 57.3404L153.985 58.024ZM182.977 55.624L182.351 56.4034L182.351 56.4036L182.977 55.624ZM188.833 96.136L189.833 96.1438V96.136H188.833ZM180.769 114.664L180.153 113.877L180.151 113.878L180.769 114.664ZM171.073 119.08L171.274 120.06L171.281 120.058L171.288 120.057L171.073 119.08ZM158.881 119.752L158.102 120.379L158.385 120.73L158.836 120.751L158.881 119.752ZM155.713 115.816H154.713V116.168L154.934 116.443L155.713 115.816ZM155.713 112.744L155.845 111.753L154.713 111.602V112.744H155.713ZM176.353 60.232L176.929 59.4145L176.922 59.4097L176.916 59.4051L176.353 60.232ZM160.129 62.92L159.373 62.265L159.365 62.2748L160.129 62.92ZM160.705 86.44L161.43 85.7508L161.421 85.7417L161.412 85.7329L160.705 86.44ZM180.577 88.648L180.942 89.5792L181.577 89.3305V88.648H180.577ZM180.234 95.1007C177.019 96.2754 173.648 96.864 170.113 96.864V98.864C173.875 98.864 177.479 98.2366 180.92 96.9793L180.234 95.1007ZM170.113 96.864C163.467 96.864 158.29 94.5412 154.467 89.9298L152.927 91.2062C157.169 96.3228 162.935 98.864 170.113 98.864V96.864ZM154.465 89.9267C151.058 85.8515 149.321 80.6204 149.321 74.152H147.321C147.321 80.9956 149.168 86.7085 152.93 91.2093L154.465 89.9267ZM149.321 74.152C149.321 67.6279 151.149 62.5159 154.715 58.7076L153.255 57.3404C149.27 61.5961 147.321 67.2361 147.321 74.152H149.321ZM154.709 58.7145C158.519 54.7224 163.679 52.688 170.305 52.688V50.688C163.235 50.688 157.515 52.8776 153.262 57.3335L154.709 58.7145ZM170.305 52.688C175.317 52.688 179.303 53.9535 182.351 56.4034L183.604 54.8446C180.123 52.0465 175.661 50.688 170.305 50.688V52.688ZM182.351 56.4036C185.976 59.3154 187.833 63.5155 187.833 69.16H189.833C189.833 63.0285 187.787 58.2046 183.603 54.8444L182.351 56.4036ZM187.833 69.16V96.136H189.833V69.16H187.833ZM187.833 96.1282C187.771 104.088 185.173 109.945 180.153 113.877L181.386 115.451C186.989 111.063 189.767 104.568 189.833 96.1438L187.833 96.1282ZM180.151 113.878C177.596 115.885 174.507 117.3 170.858 118.103L171.288 120.057C175.192 119.196 178.566 117.667 181.387 115.45L180.151 113.878ZM170.872 118.1C168.446 118.598 165.921 118.848 163.297 118.848V120.848C166.049 120.848 168.709 120.586 171.274 120.06L170.872 118.1ZM163.297 118.848C161.775 118.848 160.318 118.816 158.927 118.753L158.836 120.751C160.26 120.816 161.747 120.848 163.297 120.848V118.848ZM159.66 119.125L156.492 115.189L154.934 116.443L158.102 120.379L159.66 119.125ZM156.713 115.816V112.744H154.713V115.816H156.713ZM155.581 113.735C157.549 113.998 159.609 114.128 161.761 114.128V112.128C159.69 112.128 157.718 112.002 155.845 111.753L155.581 113.735ZM161.761 114.128C168.134 114.128 173.107 112.675 176.498 109.596C179.905 106.502 181.544 101.921 181.577 96.0456L179.577 96.0344C179.546 101.551 178.017 105.514 175.153 108.116C172.272 110.733 167.868 112.128 161.761 112.128V114.128ZM181.577 69.16C181.577 64.9237 180.054 61.6164 176.929 59.4145L175.777 61.0495C178.284 62.8156 179.577 65.4603 179.577 69.16H181.577ZM176.916 59.4051C175.112 58.1784 172.886 57.6 170.305 57.6V59.6C172.588 59.6 174.395 60.1096 175.791 61.0589L176.916 59.4051ZM170.305 57.6C165.768 57.6 162.085 59.137 159.374 62.2651L160.885 63.5749C163.166 60.943 166.267 59.6 170.305 59.6V57.6ZM159.365 62.2748C156.734 65.3909 155.481 69.6486 155.481 74.92H157.481C157.481 69.9514 158.661 66.2091 160.893 63.5652L159.365 62.2748ZM155.481 74.92C155.481 79.9867 156.955 84.1036 159.998 87.1471L161.412 85.7329C158.824 83.1444 157.481 79.5813 157.481 74.92H155.481ZM159.981 87.1292C162.694 89.9818 166.3 91.376 170.689 91.376V89.376C166.759 89.376 163.708 88.1462 161.43 85.7508L159.981 87.1292ZM170.689 91.376C174.443 91.376 177.865 90.7831 180.942 89.5792L180.213 87.7168C177.401 88.8169 174.232 89.376 170.689 89.376V91.376ZM181.577 88.648V69.16H179.577V88.648H181.577ZM209.399 28.264H210.399V27.264H209.399V28.264ZM209.399 96.04L210.03 96.8156L210.399 96.5154V96.04H209.399ZM205.271 99.4V100.4H205.627L205.902 100.176L205.271 99.4ZM201.239 99.4H200.239V100.4H201.239V99.4ZM201.239 28.264V27.264H200.239V28.264H201.239ZM208.399 28.264V96.04H210.399V28.264H208.399ZM208.768 95.2644L204.64 98.6244L205.902 100.176L210.03 96.8156L208.768 95.2644ZM205.271 98.4H201.239V100.4H205.271V98.4ZM202.239 99.4V28.264H200.239V99.4H202.239ZM201.239 29.264H209.399V27.264H201.239V29.264ZM254.006 96.04L255.006 96.0456L255.014 94.607L253.663 95.1007L254.006 96.04ZM227.126 90.568L227.896 89.9298L227.893 89.9267L227.126 90.568ZM227.414 58.024L226.691 57.3335L226.684 57.3404L227.414 58.024ZM256.406 55.624L255.779 56.4034L255.78 56.4036L256.406 55.624ZM262.262 96.136L263.262 96.1438V96.136H262.262ZM254.198 114.664L253.581 113.877L253.58 113.878L254.198 114.664ZM244.502 119.08L244.703 120.06L244.71 120.058L244.717 120.057L244.502 119.08ZM232.31 119.752L231.531 120.379L231.814 120.73L232.265 120.751L232.31 119.752ZM229.142 115.816H228.142V116.168L228.363 116.443L229.142 115.816ZM229.142 112.744L229.274 111.753L228.142 111.602V112.744H229.142ZM249.782 60.232L250.358 59.4145L250.351 59.4097L250.344 59.4051L249.782 60.232ZM233.558 62.92L232.802 62.265L232.794 62.2748L233.558 62.92ZM234.134 86.44L234.859 85.7508L234.85 85.7417L234.841 85.7329L234.134 86.44ZM254.006 88.648L254.37 89.5792L255.006 89.3305V88.648H254.006ZM253.663 95.1007C250.448 96.2754 247.076 96.864 243.542 96.864V98.864C247.304 98.864 250.908 98.2366 254.349 96.9793L253.663 95.1007ZM243.542 96.864C236.896 96.864 231.719 94.5412 227.896 89.9298L226.356 91.2062C230.597 96.3228 236.364 98.864 243.542 98.864V96.864ZM227.893 89.9267C224.487 85.8515 222.75 80.6204 222.75 74.152H220.75C220.75 80.9956 222.597 86.7085 226.359 91.2093L227.893 89.9267ZM222.75 74.152C222.75 67.6279 224.577 62.5159 228.144 58.7076L226.684 57.3404C222.699 61.5961 220.75 67.2361 220.75 74.152H222.75ZM228.137 58.7145C231.948 54.7224 237.108 52.688 243.734 52.688V50.688C236.664 50.688 230.944 52.8776 226.691 57.3335L228.137 58.7145ZM243.734 52.688C248.746 52.688 252.732 53.9535 255.779 56.4034L257.033 54.8446C253.552 52.0465 249.09 50.688 243.734 50.688V52.688ZM255.78 56.4036C259.405 59.3154 261.262 63.5155 261.262 69.16H263.262C263.262 63.0285 261.215 58.2046 257.032 54.8444L255.78 56.4036ZM261.262 69.16V96.136H263.262V69.16H261.262ZM261.262 96.1282C261.2 104.088 258.602 109.945 253.581 113.877L254.815 115.451C260.418 111.063 263.196 104.568 263.262 96.1438L261.262 96.1282ZM253.58 113.878C251.025 115.885 247.935 117.3 244.287 118.103L244.717 120.057C248.621 119.196 251.995 117.667 254.816 115.45L253.58 113.878ZM244.301 118.1C241.875 118.598 239.35 118.848 236.726 118.848V120.848C239.478 120.848 242.137 120.586 244.703 120.06L244.301 118.1ZM236.726 118.848C235.204 118.848 233.747 118.816 232.355 118.753L232.265 120.751C233.689 120.816 235.176 120.848 236.726 120.848V118.848ZM233.089 119.125L229.921 115.189L228.363 116.443L231.531 120.379L233.089 119.125ZM230.142 115.816V112.744H228.142V115.816H230.142ZM229.01 113.735C230.977 113.998 233.038 114.128 235.19 114.128V112.128C233.118 112.128 231.147 112.002 229.274 111.753L229.01 113.735ZM235.19 114.128C241.563 114.128 246.536 112.675 249.926 109.596C253.334 106.502 254.973 101.921 255.006 96.0456L253.006 96.0344C252.975 101.551 251.446 105.514 248.582 108.116C245.7 110.733 241.297 112.128 235.19 112.128V114.128ZM255.006 69.16C255.006 64.9237 253.483 61.6164 250.358 59.4145L249.206 61.0495C251.713 62.8156 253.006 65.4603 253.006 69.16H255.006ZM250.344 59.4051C248.54 58.1784 246.315 57.6 243.734 57.6V59.6C246.017 59.6 247.824 60.1096 249.22 61.0589L250.344 59.4051ZM243.734 57.6C239.197 57.6 235.513 59.137 232.802 62.2651L234.314 63.5749C236.595 60.943 239.695 59.6 243.734 59.6V57.6ZM232.794 62.2748C230.163 65.3909 228.91 69.6486 228.91 74.92H230.91C230.91 69.9514 232.089 66.2091 234.322 63.5652L232.794 62.2748ZM228.91 74.92C228.91 79.9867 230.383 84.1036 233.427 87.1471L234.841 85.7329C232.253 83.1444 230.91 79.5813 230.91 74.92H228.91ZM233.409 87.1292C236.123 89.9818 239.729 91.376 244.118 91.376V89.376C240.187 89.376 237.137 88.1462 234.859 85.7508L233.409 87.1292ZM244.118 91.376C247.872 91.376 251.294 90.7831 254.37 89.5792L253.642 87.7168C250.83 88.8169 247.66 89.376 244.118 89.376V91.376ZM255.006 88.648V69.16H253.006V88.648H255.006Z" fill="black"/>
</g>
<defs>
<filter id="filter0_d_287_18" x="124.332" y="28.2639" width="141.93" height="99.584" filterUnits="userSpaceOnUse" color-interpolation-filters="sRGB">
<feFlood flood-opacity="0" result="BackgroundImageFix"/>
<feColorMatrix in="SourceAlpha" type="matrix" values="0 0 0 0 0 0 0 0 0 0 0 0 0 0 0 0 0 0 127 0" result="hardAlpha"/>
<feOffset dy="4"/>
<feGaussianBlur stdDeviation="2"/>
<feComposite in2="hardAlpha" operator="out"/>
<feColorMatrix type="matrix" values="0 0 0 0 0 0 0 0 0 0 0 0 0 0 0 0 0 0 0.25 0"/>
<feBlend mode="normal" in2="BackgroundImageFix" result="effect1_dropShadow_287_18"/>
<feBlend mode="normal" in="SourceGraphic" in2="effect1_dropShadow_287_18" result="shape"/>
</filter>
</defs>
</svg>
