<svg width="453" height="303" viewBox="0 0 453 303" fill="none" xmlns="http://www.w3.org/2000/svg">
<path d="M50.2316 160.872L41.7356 177.252V186H36.6956V177.252L28.1636 160.872H33.8516L39.2516 172.356L44.6156 160.872H50.2316ZM61.9943 186.324C60.0743 186.324 58.3463 185.904 56.8103 185.064C55.2743 184.2 54.0623 182.988 53.1743 181.428C52.3103 179.868 51.8783 178.068 51.8783 176.028C51.8783 173.988 52.3223 172.188 53.2103 170.628C54.1223 169.068 55.3583 167.868 56.9183 167.028C58.4783 166.164 60.2183 165.732 62.1383 165.732C64.0583 165.732 65.7983 166.164 67.3583 167.028C68.9183 167.868 70.1423 169.068 71.0303 170.628C71.9423 172.188 72.3983 173.988 72.3983 176.028C72.3983 178.068 71.9303 179.868 70.9943 181.428C70.0823 182.988 68.8343 184.2 67.2503 185.064C65.6903 185.904 63.9383 186.324 61.9943 186.324ZM61.9943 181.932C62.9063 181.932 63.7583 181.716 64.5503 181.284C65.3663 180.828 66.0143 180.156 66.4943 179.268C66.9743 178.38 67.2143 177.3 67.2143 176.028C67.2143 174.132 66.7103 172.68 65.7023 171.672C64.7183 170.64 63.5063 170.124 62.0663 170.124C60.6263 170.124 59.4143 170.64 58.4303 171.672C57.4703 172.68 56.9903 174.132 56.9903 176.028C56.9903 177.924 57.4583 179.388 58.3943 180.42C59.3543 181.428 60.5543 181.932 61.9943 181.932ZM94.9233 166.056V186H89.8473V183.48C89.1993 184.344 88.3473 185.028 87.2913 185.532C86.2593 186.012 85.1313 186.252 83.9073 186.252C82.3473 186.252 80.9673 185.928 79.7673 185.28C78.5673 184.608 77.6193 183.636 76.9233 182.364C76.2513 181.068 75.9153 179.532 75.9153 177.756V166.056H80.9553V177.036C80.9553 178.62 81.3513 179.844 82.1433 180.708C82.9353 181.548 84.0153 181.968 85.3833 181.968C86.7753 181.968 87.8673 181.548 88.6593 180.708C89.4513 179.844 89.8473 178.62 89.8473 177.036V166.056H94.9233ZM129.318 160.872V186H124.278V175.308H113.514V186H108.474V160.872H113.514V171.204H124.278V160.872H129.318ZM132.983 175.956C132.983 173.94 133.379 172.152 134.171 170.592C134.987 169.032 136.079 167.832 137.447 166.992C138.839 166.152 140.387 165.732 142.091 165.732C143.579 165.732 144.875 166.032 145.979 166.632C147.107 167.232 148.007 167.988 148.679 168.9V166.056H153.755V186H148.679V183.084C148.031 184.02 147.131 184.8 145.979 185.424C144.851 186.024 143.543 186.324 142.055 186.324C140.375 186.324 138.839 185.892 137.447 185.028C136.079 184.164 134.987 182.952 134.171 181.392C133.379 179.808 132.983 177.996 132.983 175.956ZM148.679 176.028C148.679 174.804 148.439 173.76 147.959 172.896C147.479 172.008 146.831 171.336 146.015 170.88C145.199 170.4 144.323 170.16 143.387 170.16C142.451 170.16 141.587 170.388 140.795 170.844C140.003 171.3 139.355 171.972 138.851 172.86C138.371 173.724 138.131 174.756 138.131 175.956C138.131 177.156 138.371 178.212 138.851 179.124C139.355 180.012 140.003 180.696 140.795 181.176C141.611 181.656 142.475 181.896 143.387 181.896C144.323 181.896 145.199 181.668 146.015 181.212C146.831 180.732 147.479 180.06 147.959 179.196C148.439 178.308 148.679 177.252 148.679 176.028ZM166.993 181.356L172.033 166.056H177.397L170.017 186H163.897L156.553 166.056H161.953L166.993 181.356ZM198.768 175.596C198.768 176.316 198.72 176.964 198.624 177.54H184.044C184.164 178.98 184.668 180.108 185.556 180.924C186.444 181.74 187.536 182.148 188.832 182.148C190.704 182.148 192.036 181.344 192.828 179.736H198.264C197.688 181.656 196.584 183.24 194.952 184.488C193.32 185.712 191.316 186.324 188.94 186.324C187.02 186.324 185.292 185.904 183.756 185.064C182.244 184.2 181.056 182.988 180.192 181.428C179.352 179.868 178.932 178.068 178.932 176.028C178.932 173.964 179.352 172.152 180.192 170.592C181.032 169.032 182.208 167.832 183.72 166.992C185.232 166.152 186.972 165.732 188.94 165.732C190.836 165.732 192.528 166.14 194.016 166.956C195.528 167.772 196.692 168.936 197.508 170.448C198.348 171.936 198.768 173.652 198.768 175.596ZM193.548 174.156C193.524 172.86 193.056 171.828 192.144 171.06C191.232 170.268 190.116 169.872 188.796 169.872C187.548 169.872 186.492 170.256 185.628 171.024C184.788 171.768 184.272 172.812 184.08 174.156H193.548ZM223.985 186L218.441 176.208H216.065V186H211.025V160.872H220.457C222.401 160.872 224.057 161.22 225.425 161.916C226.793 162.588 227.813 163.512 228.485 164.688C229.181 165.84 229.529 167.136 229.529 168.576C229.529 170.232 229.049 171.732 228.089 173.076C227.129 174.396 225.701 175.308 223.805 175.812L229.817 186H223.985ZM216.065 172.428H220.277C221.645 172.428 222.665 172.104 223.337 171.456C224.009 170.784 224.345 169.86 224.345 168.684C224.345 167.532 224.009 166.644 223.337 166.02C222.665 165.372 221.645 165.048 220.277 165.048H216.065V172.428ZM252.628 175.596C252.628 176.316 252.58 176.964 252.484 177.54H237.904C238.024 178.98 238.528 180.108 239.416 180.924C240.304 181.74 241.396 182.148 242.692 182.148C244.564 182.148 245.896 181.344 246.688 179.736H252.124C251.548 181.656 250.444 183.24 248.812 184.488C247.18 185.712 245.176 186.324 242.8 186.324C240.88 186.324 239.152 185.904 237.616 185.064C236.104 184.2 234.916 182.988 234.052 181.428C233.212 179.868 232.792 178.068 232.792 176.028C232.792 173.964 233.212 172.152 234.052 170.592C234.892 169.032 236.068 167.832 237.58 166.992C239.092 166.152 240.832 165.732 242.8 165.732C244.696 165.732 246.388 166.14 247.876 166.956C249.388 167.772 250.552 168.936 251.368 170.448C252.208 171.936 252.628 173.652 252.628 175.596ZM247.408 174.156C247.384 172.86 246.916 171.828 246.004 171.06C245.092 170.268 243.976 169.872 242.656 169.872C241.408 169.872 240.352 170.256 239.488 171.024C238.648 171.768 238.132 172.812 237.94 174.156H247.408ZM255.01 176.028C255.01 173.964 255.43 172.164 256.27 170.628C257.11 169.068 258.274 167.868 259.762 167.028C261.25 166.164 262.954 165.732 264.874 165.732C267.346 165.732 269.386 166.356 270.994 167.604C272.626 168.828 273.718 170.556 274.27 172.788H268.834C268.546 171.924 268.054 171.252 267.358 170.772C266.686 170.268 265.846 170.016 264.838 170.016C263.398 170.016 262.258 170.544 261.418 171.6C260.578 172.632 260.158 174.108 260.158 176.028C260.158 177.924 260.578 179.4 261.418 180.456C262.258 181.488 263.398 182.004 264.838 182.004C266.878 182.004 268.21 181.092 268.834 179.268H274.27C273.718 181.428 272.626 183.144 270.994 184.416C269.362 185.688 267.322 186.324 264.874 186.324C262.954 186.324 261.25 185.904 259.762 185.064C258.274 184.2 257.11 183 256.27 181.464C255.43 179.904 255.01 178.092 255.01 176.028ZM296.503 175.596C296.503 176.316 296.455 176.964 296.359 177.54H281.779C281.899 178.98 282.403 180.108 283.291 180.924C284.179 181.74 285.271 182.148 286.567 182.148C288.439 182.148 289.771 181.344 290.563 179.736H295.999C295.423 181.656 294.319 183.24 292.687 184.488C291.055 185.712 289.051 186.324 286.675 186.324C284.755 186.324 283.027 185.904 281.491 185.064C279.979 184.2 278.791 182.988 277.927 181.428C277.087 179.868 276.667 178.068 276.667 176.028C276.667 173.964 277.087 172.152 277.927 170.592C278.767 169.032 279.943 167.832 281.455 166.992C282.967 166.152 284.707 165.732 286.675 165.732C288.571 165.732 290.263 166.14 291.751 166.956C293.263 167.772 294.427 168.936 295.243 170.448C296.083 171.936 296.503 173.652 296.503 175.596ZM291.283 174.156C291.259 172.86 290.791 171.828 289.879 171.06C288.967 170.268 287.851 169.872 286.531 169.872C285.283 169.872 284.227 170.256 283.363 171.024C282.523 171.768 282.007 172.812 281.815 174.156H291.283ZM302.737 163.68C301.849 163.68 301.105 163.404 300.505 162.852C299.929 162.276 299.641 161.568 299.641 160.728C299.641 159.888 299.929 159.192 300.505 158.64C301.105 158.064 301.849 157.776 302.737 157.776C303.625 157.776 304.357 158.064 304.933 158.64C305.533 159.192 305.833 159.888 305.833 160.728C305.833 161.568 305.533 162.276 304.933 162.852C304.357 163.404 303.625 163.68 302.737 163.68ZM305.221 166.056V186H300.181V166.056H305.221ZM318.517 181.356L323.557 166.056H328.921L321.541 186H315.421L308.077 166.056H313.477L318.517 181.356ZM350.292 175.596C350.292 176.316 350.244 176.964 350.148 177.54H335.568C335.688 178.98 336.192 180.108 337.08 180.924C337.968 181.74 339.06 182.148 340.356 182.148C342.228 182.148 343.56 181.344 344.352 179.736H349.788C349.212 181.656 348.108 183.24 346.476 184.488C344.844 185.712 342.84 186.324 340.464 186.324C338.544 186.324 336.816 185.904 335.28 185.064C333.768 184.2 332.58 182.988 331.716 181.428C330.876 179.868 330.456 178.068 330.456 176.028C330.456 173.964 330.876 172.152 331.716 170.592C332.556 169.032 333.732 167.832 335.244 166.992C336.756 166.152 338.496 165.732 340.464 165.732C342.36 165.732 344.052 166.14 345.54 166.956C347.052 167.772 348.216 168.936 349.032 170.448C349.872 171.936 350.292 173.652 350.292 175.596ZM345.072 174.156C345.048 172.86 344.58 171.828 343.668 171.06C342.756 170.268 341.64 169.872 340.32 169.872C339.072 169.872 338.016 170.256 337.152 171.024C336.312 171.768 335.796 172.812 335.604 174.156H345.072ZM352.674 175.956C352.674 173.94 353.07 172.152 353.862 170.592C354.678 169.032 355.782 167.832 357.174 166.992C358.566 166.152 360.114 165.732 361.818 165.732C363.114 165.732 364.35 166.02 365.526 166.596C366.702 167.148 367.638 167.892 368.334 168.828V159.36H373.446V186H368.334V183.048C367.71 184.032 366.834 184.824 365.706 185.424C364.578 186.024 363.27 186.324 361.782 186.324C360.102 186.324 358.566 185.892 357.174 185.028C355.782 184.164 354.678 182.952 353.862 181.392C353.07 179.808 352.674 177.996 352.674 175.956ZM368.37 176.028C368.37 174.804 368.13 173.76 367.65 172.896C367.17 172.008 366.522 171.336 365.706 170.88C364.89 170.4 364.014 170.16 363.078 170.16C362.142 170.16 361.278 170.388 360.486 170.844C359.694 171.3 359.046 171.972 358.542 172.86C358.062 173.724 357.822 174.756 357.822 175.956C357.822 177.156 358.062 178.212 358.542 179.124C359.046 180.012 359.694 180.696 360.486 181.176C361.302 181.656 362.166 181.896 363.078 181.896C364.014 181.896 364.89 181.668 365.706 181.212C366.522 180.732 367.17 180.06 367.65 179.196C368.13 178.308 368.37 177.252 368.37 176.028ZM402.355 181.212H392.347L390.691 186H385.399L394.435 160.836H400.303L409.339 186H404.011L402.355 181.212ZM400.987 177.18L397.351 166.668L393.715 177.18H400.987Z" fill="black"/>
<path d="M87.9234 287H69.1074L44.0514 249.176V287H25.2354V219.32H44.0514L69.1074 257.624V219.32H87.9234V287ZM150.098 259.448C150.098 260.92 150.002 262.392 149.81 263.864H114.194C114.386 266.808 115.186 269.016 116.594 270.488C118.066 271.896 119.922 272.6 122.162 272.6C125.298 272.6 127.538 271.192 128.882 268.376H148.946C148.114 272.088 146.482 275.416 144.05 278.36C141.682 281.24 138.674 283.512 135.026 285.176C131.378 286.84 127.346 287.672 122.93 287.672C117.618 287.672 112.882 286.552 108.722 284.312C104.626 282.072 101.394 278.872 99.0256 274.712C96.7216 270.552 95.5696 265.656 95.5696 260.024C95.5696 254.392 96.7216 249.528 99.0256 245.432C101.33 241.272 104.53 238.072 108.626 235.832C112.786 233.592 117.554 232.472 122.93 232.472C128.242 232.472 132.946 233.56 137.042 235.736C141.138 237.912 144.338 241.048 146.642 245.144C148.946 249.176 150.098 253.944 150.098 259.448ZM130.898 254.744C130.898 252.44 130.13 250.648 128.594 249.368C127.058 248.024 125.138 247.352 122.834 247.352C120.53 247.352 118.642 247.992 117.17 249.272C115.698 250.488 114.738 252.312 114.29 254.744H130.898ZM237.382 233.144L223.654 287H202.534L195.046 254.36L187.27 287H166.246L152.614 233.144H171.334L177.382 268.856L185.35 233.144H205.51L213.766 268.952L219.718 233.144H237.382ZM304.31 241.592C303.222 239.8 301.718 238.424 299.798 237.464C297.942 236.504 295.734 236.024 293.174 236.024C288.438 236.024 284.694 237.56 281.942 240.632C279.254 243.704 277.91 247.832 277.91 253.016C277.91 258.84 279.35 263.288 282.23 266.36C285.174 269.368 289.43 270.872 294.998 270.872C301.59 270.872 306.294 267.896 309.11 261.944H290.198V248.408H325.334V266.648C323.862 270.232 321.686 273.592 318.806 276.728C315.99 279.864 312.406 282.456 308.054 284.504C303.702 286.488 298.742 287.48 293.174 287.48C286.39 287.48 280.374 286.04 275.126 283.16C269.942 280.216 265.91 276.152 263.03 270.968C260.214 265.72 258.806 259.736 258.806 253.016C258.806 246.36 260.214 240.44 263.03 235.256C265.91 230.008 269.942 225.944 275.126 223.064C280.31 220.12 286.294 218.648 293.078 218.648C301.59 218.648 308.63 220.696 314.198 224.792C319.766 228.888 323.222 234.488 324.566 241.592H304.31ZM343.271 228.152C339.943 228.152 337.255 227.256 335.207 225.464C333.223 223.608 332.231 221.304 332.231 218.552C332.231 215.736 333.223 213.4 335.207 211.544C337.255 209.688 339.943 208.76 343.271 208.76C346.535 208.76 349.159 209.688 351.143 211.544C353.191 213.4 354.215 215.736 354.215 218.552C354.215 221.304 353.191 223.608 351.143 225.464C349.159 227.256 346.535 228.152 343.271 228.152ZM352.583 233.144V287H333.767V233.144H352.583ZM392.386 248.792H383.938V287H365.026V248.792H359.17V233.144H365.026V232.664C365.026 225.752 367.042 220.472 371.074 216.824C375.17 213.112 381.026 211.256 388.642 211.256C390.178 211.256 391.362 211.288 392.194 211.352V227.384C391.682 227.32 390.978 227.288 390.082 227.288C388.034 227.288 386.53 227.768 385.57 228.728C384.61 229.624 384.066 231.096 383.938 233.144H392.386V248.792ZM430.886 270.968V287H422.726C408.966 287 402.086 280.184 402.086 266.552V248.792H395.462V233.144H402.086V220.088H420.998V233.144H430.79V248.792H420.998V266.84C420.998 268.312 421.318 269.368 421.958 270.008C422.662 270.648 423.814 270.968 425.414 270.968H430.886Z" fill="black"/>
<path d="M106.951 39.76L75.207 101.328V130H49.991V101.328L18.247 39.76H46.919L62.791 74.576L78.663 39.76H106.951ZM161.501 115.28H129.501L124.637 130H98.269L131.165 39.76H160.093L192.861 130H166.365L161.501 115.28ZM155.229 96.08L145.501 66.896L135.901 96.08H155.229ZM272.846 39.76L241.102 101.328V130H215.886V101.328L184.142 39.76H212.814L228.686 74.576L244.558 39.76H272.846ZM303.844 35.152L300.9 96.208H279.524L276.58 35.152H303.844ZM290.276 131.024C285.839 131.024 282.255 129.829 279.524 127.44C276.879 124.965 275.556 121.851 275.556 118.096C275.556 114.341 276.879 111.227 279.524 108.752C282.255 106.277 285.839 105.04 290.276 105.04C294.628 105.04 298.127 106.277 300.772 108.752C303.503 111.227 304.868 114.341 304.868 118.096C304.868 121.765 303.503 124.837 300.772 127.312C298.127 129.787 294.628 131.024 290.276 131.024Z" fill="black"/>
</svg>
