<svg width="335" height="203" viewBox="0 0 335 203" fill="none" xmlns="http://www.w3.org/2000/svg">
<path d="M78.2398 115.04L73.5198 124.14V129H70.7198V124.14L65.9798 115.04H69.1398L72.1398 121.42L75.1198 115.04H78.2398ZM84.7746 129.18C83.7079 129.18 82.7479 128.947 81.8946 128.48C81.0413 128 80.3679 127.327 79.8746 126.46C79.3946 125.593 79.1546 124.593 79.1546 123.46C79.1546 122.327 79.4013 121.327 79.8946 120.46C80.4013 119.593 81.0879 118.927 81.9546 118.46C82.8213 117.98 83.7879 117.74 84.8546 117.74C85.9213 117.74 86.8879 117.98 87.7546 118.46C88.6213 118.927 89.3013 119.593 89.7946 120.46C90.3013 121.327 90.5546 122.327 90.5546 123.46C90.5546 124.593 90.2946 125.593 89.7746 126.46C89.2679 127.327 88.5746 128 87.6946 128.48C86.8279 128.947 85.8546 129.18 84.7746 129.18ZM84.7746 126.74C85.2813 126.74 85.7546 126.62 86.1946 126.38C86.6479 126.127 87.0079 125.753 87.2746 125.26C87.5413 124.767 87.6746 124.167 87.6746 123.46C87.6746 122.407 87.3946 121.6 86.8346 121.04C86.2879 120.467 85.6146 120.18 84.8146 120.18C84.0146 120.18 83.3413 120.467 82.7946 121.04C82.2613 121.6 81.9946 122.407 81.9946 123.46C81.9946 124.513 82.2546 125.327 82.7746 125.9C83.3079 126.46 83.9746 126.74 84.7746 126.74ZM103.069 117.92V129H100.249V127.6C99.8885 128.08 99.4152 128.46 98.8285 128.74C98.2552 129.007 97.6285 129.14 96.9485 129.14C96.0818 129.14 95.3152 128.96 94.6485 128.6C93.9818 128.227 93.4552 127.687 93.0685 126.98C92.6952 126.26 92.5085 125.407 92.5085 124.42V117.92H95.3085V124.02C95.3085 124.9 95.5285 125.58 95.9685 126.06C96.4085 126.527 97.0085 126.76 97.7685 126.76C98.5418 126.76 99.1485 126.527 99.5885 126.06C100.029 125.58 100.249 124.9 100.249 124.02V117.92H103.069ZM122.177 115.04V129H119.377V123.06H113.397V129H110.597V115.04H113.397V120.78H119.377V115.04H122.177ZM124.213 123.42C124.213 122.3 124.433 121.307 124.873 120.44C125.326 119.573 125.933 118.907 126.693 118.44C127.466 117.973 128.326 117.74 129.273 117.74C130.099 117.74 130.819 117.907 131.433 118.24C132.059 118.573 132.559 118.993 132.933 119.5V117.92H135.753V129H132.933V127.38C132.573 127.9 132.073 128.333 131.433 128.68C130.806 129.013 130.079 129.18 129.253 129.18C128.319 129.18 127.466 128.94 126.693 128.46C125.933 127.98 125.326 127.307 124.873 126.44C124.433 125.56 124.213 124.553 124.213 123.42ZM132.933 123.46C132.933 122.78 132.799 122.2 132.533 121.72C132.266 121.227 131.906 120.853 131.453 120.6C130.999 120.333 130.513 120.2 129.993 120.2C129.473 120.2 128.993 120.327 128.553 120.58C128.113 120.833 127.753 121.207 127.473 121.7C127.206 122.18 127.073 122.753 127.073 123.42C127.073 124.087 127.206 124.673 127.473 125.18C127.753 125.673 128.113 126.053 128.553 126.32C129.006 126.587 129.486 126.72 129.993 126.72C130.513 126.72 130.999 126.593 131.453 126.34C131.906 126.073 132.266 125.7 132.533 125.22C132.799 124.727 132.933 124.14 132.933 123.46ZM143.107 126.42L145.907 117.92H148.887L144.787 129H141.387L137.307 117.92H140.307L143.107 126.42ZM160.76 123.22C160.76 123.62 160.733 123.98 160.68 124.3H152.58C152.647 125.1 152.927 125.727 153.42 126.18C153.913 126.633 154.52 126.86 155.24 126.86C156.28 126.86 157.02 126.413 157.46 125.52H160.48C160.16 126.587 159.547 127.467 158.64 128.16C157.733 128.84 156.62 129.18 155.3 129.18C154.233 129.18 153.273 128.947 152.42 128.48C151.58 128 150.92 127.327 150.44 126.46C149.973 125.593 149.74 124.593 149.74 123.46C149.74 122.313 149.973 121.307 150.44 120.44C150.907 119.573 151.56 118.907 152.4 118.44C153.24 117.973 154.207 117.74 155.3 117.74C156.353 117.74 157.293 117.967 158.12 118.42C158.96 118.873 159.607 119.52 160.06 120.36C160.527 121.187 160.76 122.14 160.76 123.22ZM157.86 122.42C157.847 121.7 157.587 121.127 157.08 120.7C156.573 120.26 155.953 120.04 155.22 120.04C154.527 120.04 153.94 120.253 153.46 120.68C152.993 121.093 152.707 121.673 152.6 122.42H157.86ZM174.769 129L171.689 123.56H170.369V129H167.569V115.04H172.809C173.889 115.04 174.809 115.233 175.569 115.62C176.329 115.993 176.896 116.507 177.269 117.16C177.656 117.8 177.849 118.52 177.849 119.32C177.849 120.24 177.583 121.073 177.049 121.82C176.516 122.553 175.723 123.06 174.669 123.34L178.009 129H174.769ZM170.369 121.46H172.709C173.469 121.46 174.036 121.28 174.409 120.92C174.783 120.547 174.969 120.033 174.969 119.38C174.969 118.74 174.783 118.247 174.409 117.9C174.036 117.54 173.469 117.36 172.709 117.36H170.369V121.46ZM190.682 123.22C190.682 123.62 190.655 123.98 190.602 124.3H182.502C182.569 125.1 182.849 125.727 183.342 126.18C183.835 126.633 184.442 126.86 185.162 126.86C186.202 126.86 186.942 126.413 187.382 125.52H190.402C190.082 126.587 189.469 127.467 188.562 128.16C187.655 128.84 186.542 129.18 185.222 129.18C184.155 129.18 183.195 128.947 182.342 128.48C181.502 128 180.842 127.327 180.362 126.46C179.895 125.593 179.662 124.593 179.662 123.46C179.662 122.313 179.895 121.307 180.362 120.44C180.829 119.573 181.482 118.907 182.322 118.44C183.162 117.973 184.129 117.74 185.222 117.74C186.275 117.74 187.215 117.967 188.042 118.42C188.882 118.873 189.529 119.52 189.982 120.36C190.449 121.187 190.682 122.14 190.682 123.22ZM187.782 122.42C187.769 121.7 187.509 121.127 187.002 120.7C186.495 120.26 185.875 120.04 185.142 120.04C184.449 120.04 183.862 120.253 183.382 120.68C182.915 121.093 182.629 121.673 182.522 122.42H187.782ZM192.006 123.46C192.006 122.313 192.239 121.313 192.706 120.46C193.172 119.593 193.819 118.927 194.646 118.46C195.472 117.98 196.419 117.74 197.486 117.74C198.859 117.74 199.992 118.087 200.886 118.78C201.792 119.46 202.399 120.42 202.706 121.66H199.686C199.526 121.18 199.252 120.807 198.866 120.54C198.492 120.26 198.026 120.12 197.466 120.12C196.666 120.12 196.032 120.413 195.566 121C195.099 121.573 194.866 122.393 194.866 123.46C194.866 124.513 195.099 125.333 195.566 125.92C196.032 126.493 196.666 126.78 197.466 126.78C198.599 126.78 199.339 126.273 199.686 125.26H202.706C202.399 126.46 201.792 127.413 200.886 128.12C199.979 128.827 198.846 129.18 197.486 129.18C196.419 129.18 195.472 128.947 194.646 128.48C193.819 128 193.172 127.333 192.706 126.48C192.239 125.613 192.006 124.607 192.006 123.46ZM215.057 123.22C215.057 123.62 215.03 123.98 214.977 124.3H206.877C206.944 125.1 207.224 125.727 207.717 126.18C208.21 126.633 208.817 126.86 209.537 126.86C210.577 126.86 211.317 126.413 211.757 125.52H214.777C214.457 126.587 213.844 127.467 212.937 128.16C212.03 128.84 210.917 129.18 209.597 129.18C208.53 129.18 207.57 128.947 206.717 128.48C205.877 128 205.217 127.327 204.737 126.46C204.27 125.593 204.037 124.593 204.037 123.46C204.037 122.313 204.27 121.307 204.737 120.44C205.204 119.573 205.857 118.907 206.697 118.44C207.537 117.973 208.504 117.74 209.597 117.74C210.65 117.74 211.59 117.967 212.417 118.42C213.257 118.873 213.904 119.52 214.357 120.36C214.824 121.187 215.057 122.14 215.057 123.22ZM212.157 122.42C212.144 121.7 211.884 121.127 211.377 120.7C210.87 120.26 210.25 120.04 209.517 120.04C208.824 120.04 208.237 120.253 207.757 120.68C207.29 121.093 207.004 121.673 206.897 122.42H212.157ZM218.521 116.6C218.027 116.6 217.614 116.447 217.281 116.14C216.961 115.82 216.801 115.427 216.801 114.96C216.801 114.493 216.961 114.107 217.281 113.8C217.614 113.48 218.027 113.32 218.521 113.32C219.014 113.32 219.421 113.48 219.741 113.8C220.074 114.107 220.241 114.493 220.241 114.96C220.241 115.427 220.074 115.82 219.741 116.14C219.421 116.447 219.014 116.6 218.521 116.6ZM219.901 117.92V129H217.101V117.92H219.901ZM227.287 126.42L230.087 117.92H233.067L228.967 129H225.567L221.487 117.92H224.487L227.287 126.42ZM244.94 123.22C244.94 123.62 244.913 123.98 244.86 124.3H236.76C236.826 125.1 237.106 125.727 237.6 126.18C238.093 126.633 238.7 126.86 239.42 126.86C240.46 126.86 241.2 126.413 241.64 125.52H244.66C244.34 126.587 243.726 127.467 242.82 128.16C241.913 128.84 240.8 129.18 239.48 129.18C238.413 129.18 237.453 128.947 236.6 128.48C235.76 128 235.1 127.327 234.62 126.46C234.153 125.593 233.92 124.593 233.92 123.46C233.92 122.313 234.153 121.307 234.62 120.44C235.086 119.573 235.74 118.907 236.58 118.44C237.42 117.973 238.386 117.74 239.48 117.74C240.533 117.74 241.473 117.967 242.3 118.42C243.14 118.873 243.786 119.52 244.24 120.36C244.706 121.187 244.94 122.14 244.94 123.22ZM242.04 122.42C242.026 121.7 241.766 121.127 241.26 120.7C240.753 120.26 240.133 120.04 239.4 120.04C238.706 120.04 238.12 120.253 237.64 120.68C237.173 121.093 236.886 121.673 236.78 122.42H242.04ZM246.264 123.42C246.264 122.3 246.484 121.307 246.924 120.44C247.377 119.573 247.99 118.907 248.764 118.44C249.537 117.973 250.397 117.74 251.344 117.74C252.064 117.74 252.75 117.9 253.404 118.22C254.057 118.527 254.577 118.94 254.964 119.46V114.2H257.804V129H254.964V127.36C254.617 127.907 254.13 128.347 253.504 128.68C252.877 129.013 252.15 129.18 251.324 129.18C250.39 129.18 249.537 128.94 248.764 128.46C247.99 127.98 247.377 127.307 246.924 126.44C246.484 125.56 246.264 124.553 246.264 123.42ZM254.984 123.46C254.984 122.78 254.85 122.2 254.584 121.72C254.317 121.227 253.957 120.853 253.504 120.6C253.05 120.333 252.564 120.2 252.044 120.2C251.524 120.2 251.044 120.327 250.604 120.58C250.164 120.833 249.804 121.207 249.524 121.7C249.257 122.18 249.124 122.753 249.124 123.42C249.124 124.087 249.257 124.673 249.524 125.18C249.804 125.673 250.164 126.053 250.604 126.32C251.057 126.587 251.537 126.72 252.044 126.72C252.564 126.72 253.05 126.593 253.504 126.34C253.957 126.073 254.317 125.7 254.584 125.22C254.85 124.727 254.984 124.14 254.984 123.46ZM273.864 126.34H268.304L267.384 129H264.444L269.464 115.02H272.724L277.744 129H274.784L273.864 126.34ZM273.104 124.1L271.084 118.26L269.064 124.1H273.104Z" fill="black"/>
<path d="M99.5643 181H89.7643L76.7143 161.3V181H66.9143V145.75H76.7143L89.7643 165.7V145.75H99.5643V181ZM131.947 166.65C131.947 167.417 131.897 168.183 131.797 168.95H113.247C113.347 170.483 113.763 171.633 114.497 172.4C115.263 173.133 116.23 173.5 117.397 173.5C119.03 173.5 120.197 172.767 120.897 171.3H131.347C130.913 173.233 130.063 174.967 128.797 176.5C127.563 178 125.997 179.183 124.097 180.05C122.197 180.917 120.097 181.35 117.797 181.35C115.03 181.35 112.563 180.767 110.397 179.6C108.263 178.433 106.58 176.767 105.347 174.6C104.147 172.433 103.547 169.883 103.547 166.95C103.547 164.017 104.147 161.483 105.347 159.35C106.547 157.183 108.213 155.517 110.347 154.35C112.513 153.183 114.997 152.6 117.797 152.6C120.563 152.6 123.013 153.167 125.147 154.3C127.28 155.433 128.947 157.067 130.147 159.2C131.347 161.3 131.947 163.783 131.947 166.65ZM121.947 164.2C121.947 163 121.547 162.067 120.747 161.4C119.947 160.7 118.947 160.35 117.747 160.35C116.547 160.35 115.563 160.683 114.797 161.35C114.03 161.983 113.53 162.933 113.297 164.2H121.947ZM177.407 152.95L170.257 181H159.257L155.357 164L151.307 181H140.357L133.257 152.95H143.007L146.157 171.55L150.307 152.95H160.807L165.107 171.6L168.207 152.95H177.407ZM212.266 157.35C211.699 156.417 210.916 155.7 209.916 155.2C208.949 154.7 207.799 154.45 206.466 154.45C203.999 154.45 202.049 155.25 200.616 156.85C199.216 158.45 198.516 160.6 198.516 163.3C198.516 166.333 199.266 168.65 200.766 170.25C202.299 171.817 204.516 172.6 207.416 172.6C210.849 172.6 213.299 171.05 214.766 167.95H204.916V160.9H223.216V170.4C222.449 172.267 221.316 174.017 219.816 175.65C218.349 177.283 216.482 178.633 214.216 179.7C211.949 180.733 209.366 181.25 206.466 181.25C202.932 181.25 199.799 180.5 197.066 179C194.366 177.467 192.266 175.35 190.766 172.65C189.299 169.917 188.566 166.8 188.566 163.3C188.566 159.833 189.299 156.75 190.766 154.05C192.266 151.317 194.366 149.2 197.066 147.7C199.766 146.167 202.882 145.4 206.416 145.4C210.849 145.4 214.516 146.467 217.416 148.6C220.316 150.733 222.116 153.65 222.816 157.35H212.266ZM232.558 150.35C230.824 150.35 229.424 149.883 228.358 148.95C227.324 147.983 226.808 146.783 226.808 145.35C226.808 143.883 227.324 142.667 228.358 141.7C229.424 140.733 230.824 140.25 232.558 140.25C234.258 140.25 235.624 140.733 236.658 141.7C237.724 142.667 238.258 143.883 238.258 145.35C238.258 146.783 237.724 147.983 236.658 148.95C235.624 149.883 234.258 150.35 232.558 150.35ZM237.408 152.95V181H227.608V152.95H237.408ZM258.138 161.1H253.738V181H243.888V161.1H240.838V152.95H243.888V152.7C243.888 149.1 244.938 146.35 247.038 144.45C249.172 142.517 252.222 141.55 256.188 141.55C256.988 141.55 257.605 141.567 258.038 141.6V149.95C257.772 149.917 257.405 149.9 256.938 149.9C255.872 149.9 255.088 150.15 254.588 150.65C254.088 151.117 253.805 151.883 253.738 152.95H258.138V161.1ZM278.191 172.65V181H273.941C266.774 181 263.191 177.45 263.191 170.35V161.1H259.741V152.95H263.191V146.15H273.041V152.95H278.141V161.1H273.041V170.5C273.041 171.267 273.207 171.817 273.541 172.15C273.907 172.483 274.507 172.65 275.341 172.65H278.191Z" fill="black"/>
<g filter="url(#filter0_d_282_2)">
<path d="M122.088 29.32L98.2802 75.496V97H79.3682V75.496L55.5602 29.32H77.0642L88.9682 55.432L100.872 29.32H122.088ZM163.001 85.96H139.001L135.353 97H115.577L140.249 29.32H161.945L186.521 97H166.649L163.001 85.96ZM158.297 71.56L151.001 49.672L143.801 71.56H158.297ZM246.51 29.32L222.702 75.496V97H203.79V75.496L179.982 29.32H201.486L213.39 55.432L225.294 29.32H246.51ZM269.758 25.864L267.55 71.656H251.518L249.31 25.864H269.758ZM259.582 97.768C256.254 97.768 253.566 96.872 251.518 95.08C249.534 93.224 248.542 90.888 248.542 88.072C248.542 85.256 249.534 82.92 251.518 81.064C253.566 79.208 256.254 78.28 259.582 78.28C262.846 78.28 265.47 79.208 267.454 81.064C269.502 82.92 270.526 85.256 270.526 88.072C270.526 90.824 269.502 93.128 267.454 94.984C265.47 96.84 262.846 97.768 259.582 97.768Z" fill="black"/>
<path d="M122.088 29.32L122.977 29.7783L123.729 28.32H122.088V29.32ZM98.2802 75.496L97.3914 75.0377L97.2802 75.2534V75.496H98.2802ZM98.2802 97V98H99.2802V97H98.2802ZM79.3682 97H78.3682V98H79.3682V97ZM79.3682 75.496H80.3682V75.2534L80.2571 75.0377L79.3682 75.496ZM55.5602 29.32V28.32H53.9196L54.6714 29.7783L55.5602 29.32ZM77.0642 29.32L77.9742 28.9052L77.7074 28.32H77.0642V29.32ZM88.9682 55.432L88.0583 55.8468L88.9682 57.8427L89.8782 55.8468L88.9682 55.432ZM100.872 29.32V28.32H100.229L99.9623 28.9052L100.872 29.32ZM121.199 28.8617L97.3914 75.0377L99.1691 75.9543L122.977 29.7783L121.199 28.8617ZM97.2802 75.496V97H99.2802V75.496H97.2802ZM98.2802 96H79.3682V98H98.2802V96ZM80.3682 97V75.496H78.3682V97H80.3682ZM80.2571 75.0377L56.4491 28.8617L54.6714 29.7783L78.4794 75.9543L80.2571 75.0377ZM55.5602 30.32H77.0642V28.32H55.5602V30.32ZM76.1543 29.7348L88.0583 55.8468L89.8782 55.0172L77.9742 28.9052L76.1543 29.7348ZM89.8782 55.8468L101.782 29.7348L99.9623 28.9052L88.0583 55.0172L89.8782 55.8468ZM100.872 30.32H122.088V28.32H100.872V30.32ZM163.001 85.96L163.95 85.6463L163.723 84.96H163.001V85.96ZM139.001 85.96V84.96H138.278L138.051 85.6463L139.001 85.96ZM135.353 97V98H136.075L136.302 97.3137L135.353 97ZM115.577 97L114.637 96.6575L114.148 98H115.577V97ZM140.249 29.32V28.32H139.549L139.309 28.9775L140.249 29.32ZM161.945 29.32L162.885 28.9787L162.646 28.32H161.945V29.32ZM186.521 97V98H187.948L187.461 96.6587L186.521 97ZM166.649 97L165.699 97.3137L165.926 98H166.649V97ZM158.297 71.56V72.56H159.684L159.245 71.2438L158.297 71.56ZM151.001 49.672L151.949 49.3558L150.994 46.4909L150.051 49.3595L151.001 49.672ZM143.801 71.56L142.851 71.2475L142.419 72.56H143.801V71.56ZM163.001 84.96H139.001V86.96H163.001V84.96ZM138.051 85.6463L134.403 96.6863L136.302 97.3137L139.95 86.2737L138.051 85.6463ZM135.353 96H115.577V98H135.353V96ZM116.516 97.3425L141.188 29.6625L139.309 28.9775L114.637 96.6575L116.516 97.3425ZM140.249 30.32H161.945V28.32H140.249V30.32ZM161.005 29.6613L185.581 97.3413L187.461 96.6587L162.885 28.9787L161.005 29.6613ZM186.521 96H166.649V98H186.521V96ZM167.598 96.6863L163.95 85.6463L162.051 86.2737L165.699 97.3137L167.598 96.6863ZM159.245 71.2438L151.949 49.3558L150.052 49.9882L157.348 71.8762L159.245 71.2438ZM150.051 49.3595L142.851 71.2475L144.751 71.8725L151.951 49.9845L150.051 49.3595ZM143.801 72.56H158.297V70.56H143.801V72.56ZM246.51 29.32L247.398 29.7783L248.15 28.32H246.51V29.32ZM222.702 75.496L221.813 75.0377L221.702 75.2534V75.496H222.702ZM222.702 97V98H223.702V97H222.702ZM203.79 97H202.79V98H203.79V97ZM203.79 75.496H204.79V75.2534L204.678 75.0377L203.79 75.496ZM179.982 29.32V28.32H178.341L179.093 29.7783L179.982 29.32ZM201.486 29.32L202.395 28.9052L202.129 28.32H201.486V29.32ZM213.39 55.432L212.48 55.8468L213.39 57.8427L214.299 55.8468L213.39 55.432ZM225.294 29.32V28.32H224.65L224.384 28.9052L225.294 29.32ZM245.621 28.8617L221.813 75.0377L223.59 75.9543L247.398 29.7783L245.621 28.8617ZM221.702 75.496V97H223.702V75.496H221.702ZM222.702 96H203.79V98H222.702V96ZM204.79 97V75.496H202.79V97H204.79ZM204.678 75.0377L180.87 28.8617L179.093 29.7783L202.901 75.9543L204.678 75.0377ZM179.982 30.32H201.486V28.32H179.982V30.32ZM200.576 29.7348L212.48 55.8468L214.299 55.0172L202.395 28.9052L200.576 29.7348ZM214.299 55.8468L226.203 29.7348L224.384 28.9052L212.48 55.0172L214.299 55.8468ZM225.294 30.32H246.51V28.32H225.294V30.32ZM269.758 25.864L270.757 25.9122L270.807 24.864H269.758V25.864ZM267.55 71.656V72.656H268.503L268.549 71.7042L267.55 71.656ZM251.518 71.656L250.519 71.7042L250.565 72.656H251.518V71.656ZM249.31 25.864V24.864H248.261L248.311 25.9122L249.31 25.864ZM251.518 95.08L250.835 95.8103L250.847 95.8216L250.86 95.8326L251.518 95.08ZM251.518 81.064L250.846 80.323L250.841 80.3283L250.835 80.3337L251.518 81.064ZM267.454 81.064L266.771 81.7943L266.777 81.7997L266.782 81.805L267.454 81.064ZM267.454 94.984L266.782 94.243L266.777 94.2483L266.771 94.2537L267.454 94.984ZM268.759 25.8158L266.551 71.6078L268.549 71.7042L270.757 25.9122L268.759 25.8158ZM267.55 70.656H251.518V72.656H267.55V70.656ZM252.517 71.6078L250.309 25.8158L248.311 25.9122L250.519 71.7042L252.517 71.6078ZM249.31 26.864H269.758V24.864H249.31V26.864ZM259.582 96.768C256.44 96.768 254.004 95.9264 252.177 94.3274L250.86 95.8326C253.128 97.8176 256.068 98.768 259.582 98.768V96.768ZM252.201 94.3497C250.427 92.6905 249.542 90.6226 249.542 88.072H247.542C247.542 91.1534 248.641 93.7575 250.835 95.8103L252.201 94.3497ZM249.542 88.072C249.542 85.5214 250.427 83.4535 252.201 81.7943L250.835 80.3337C248.641 82.3865 247.542 84.9906 247.542 88.072H249.542ZM252.19 81.805C254.018 80.1483 256.449 79.28 259.582 79.28V77.28C256.059 77.28 253.114 78.2677 250.846 80.323L252.19 81.805ZM259.582 79.28C262.646 79.28 265.008 80.1453 266.771 81.7943L268.137 80.3337C265.932 78.2707 263.046 77.28 259.582 77.28V79.28ZM266.782 81.805C268.617 83.4674 269.526 85.5322 269.526 88.072H271.526C271.526 84.9798 270.387 82.3726 268.126 80.323L266.782 81.805ZM269.526 88.072C269.526 90.5403 268.622 92.5756 266.782 94.243L268.126 95.725C270.382 93.6804 271.526 91.1077 271.526 88.072H269.526ZM266.771 94.2537C265.008 95.9027 262.646 96.768 259.582 96.768V98.768C263.046 98.768 265.932 97.7773 268.137 95.7143L266.771 94.2537Z" fill="black"/>
</g>
<defs>
<filter id="filter0_d_282_2" x="51.5602" y="25.864" width="222.966" height="79.9041" filterUnits="userSpaceOnUse" color-interpolation-filters="sRGB">
<feFlood flood-opacity="0" result="BackgroundImageFix"/>
<feColorMatrix in="SourceAlpha" type="matrix" values="0 0 0 0 0 0 0 0 0 0 0 0 0 0 0 0 0 0 127 0" result="hardAlpha"/>
<feOffset dy="4"/>
<feGaussianBlur stdDeviation="2"/>
<feComposite in2="hardAlpha" operator="out"/>
<feColorMatrix type="matrix" values="0 0 0 0 0 0 0 0 0 0 0 0 0 0 0 0 0 0 0.25 0"/>
<feBlend mode="normal" in2="BackgroundImageFix" result="effect1_dropShadow_282_2"/>
<feBlend mode="normal" in="SourceGraphic" in2="effect1_dropShadow_282_2" result="shape"/>
</filter>
</defs>
</svg>
